<?xml version="1.0" standalone="no"?>
<!DOCTYPE svg PUBLIC "-//W3C//DTD SVG 20010904//EN"
 "http://www.w3.org/TR/2001/REC-SVG-20010904/DTD/svg10.dtd">
<svg version="1.0" xmlns="http://www.w3.org/2000/svg"
 width="512.000000pt" height="512.000000pt" viewBox="0 0 512.000000 512.000000"
 preserveAspectRatio="xMidYMid meet">
<metadata>
Created by potrace 1.11, written by Peter Selinger 2001-2013
</metadata>
<g transform="translate(0.000000,512.000000) scale(0.100000,-0.100000)"
fill="#000000" stroke="none">
<path d="M3540 4720 c-9 -6 -10 -10 -3 -10 6 0 15 5 18 10 8 12 4 12 -15 0z"/>
<path d="M3435 4680 c4 -7 -28 -20 -41 -17 -3 1 -10 -6 -15 -16 -6 -9 -15 -14
-21 -11 -6 4 -8 3 -5 -3 9 -15 -25 -50 -46 -47 -9 1 -15 -2 -11 -7 3 -5 10 -7
15 -4 5 4 9 -1 9 -9 0 -9 -4 -16 -8 -16 -4 0 -7 -12 -7 -27 1 -16 -3 -34 -8
-40 -6 -8 -6 -13 0 -13 8 0 14 -26 17 -77 0 -11 4 -19 7 -17 4 2 14 -7 23 -21
9 -13 38 -45 65 -71 28 -26 47 -52 44 -58 -3 -6 -2 -8 2 -3 11 10 66 -43 58
-56 -3 -6 -2 -7 4 -4 12 7 59 -43 55 -58 -2 -5 0 -7 4 -2 10 10 45 -23 37 -36
-3 -5 -2 -7 4 -4 13 8 95 -78 85 -88 -4 -5 1 -5 11 -2 9 4 17 2 17 -3 0 -5 -8
-14 -17 -20 -15 -8 -14 -9 8 -4 17 3 30 0 38 -10 8 -9 10 -16 5 -16 -5 0 2 -6
16 -13 14 -8 24 -19 22 -25 -1 -7 1 -11 5 -9 5 1 8 -2 8 -7 0 -5 10 -13 23
-17 15 -6 21 -13 16 -21 -4 -7 -3 -9 1 -5 11 9 226 -203 219 -215 -3 -5 0 -7
8 -6 7 2 12 -4 10 -12 -2 -8 0 -12 4 -7 10 10 65 -43 57 -56 -3 -6 -2 -7 4 -4
11 7 59 -43 55 -56 -1 -5 2 -6 6 -3 12 7 44 -28 35 -39 -5 -4 -3 -5 3 -2 12 7
97 -77 87 -87 -4 -3 0 -6 8 -6 16 0 85 -97 76 -107 -4 -3 0 -11 9 -17 8 -6 16
-21 17 -34 0 -12 4 -22 8 -22 7 0 30 -73 34 -108 2 -16 -2 -22 -11 -18 -8 3
-14 1 -14 -4 0 -6 7 -10 16 -10 8 0 13 -4 10 -9 -4 -5 0 -12 6 -14 10 -4 10
-6 0 -6 -7 -1 -10 -6 -6 -13 5 -8 2 -9 -9 -5 -10 3 -17 2 -17 -3 0 -6 9 -10
20 -10 16 0 18 -4 11 -22 -4 -13 -6 -29 -4 -36 3 -8 -2 -10 -14 -6 -17 5 -17
5 0 -6 19 -12 24 -35 5 -24 -9 5 -9 2 1 -9 12 -15 11 -17 -5 -17 -11 0 -15 -4
-9 -8 14 -10 17 -32 4 -32 -5 0 -7 -5 -3 -12 5 -7 2 -9 -8 -6 -8 4 -15 0 -15
-8 0 -7 5 -11 10 -7 15 9 -4 -41 -22 -55 -9 -8 -10 -11 -4 -7 7 3 0 -17 -14
-46 -15 -28 -33 -53 -40 -56 -7 -3 -10 -9 -7 -14 3 -5 0 -9 -6 -9 -6 0 -15
-11 -21 -24 -11 -23 -23 -27 -45 -14 -6 4 -11 1 -11 -7 0 -8 5 -11 10 -8 5 3
7 0 5 -8 -3 -8 -11 -13 -17 -11 -7 1 -10 -2 -6 -8 4 -6 -7 -16 -23 -23 -16 -6
-30 -16 -30 -22 -1 -5 -10 -11 -22 -13 -11 -2 -20 -8 -20 -13 0 -6 -4 -7 -10
-4 -5 3 -10 1 -10 -6 0 -8 -4 -8 -15 1 -13 11 -14 10 -10 -1 7 -20 -49 -41
-65 -25 -6 6 -11 7 -10 1 5 -22 -1 -29 -10 -15 -7 11 -10 11 -10 2 0 -7 -4
-10 -10 -7 -5 3 -10 2 -10 -2 0 -13 -42 -14 -56 -2 -8 7 -15 6 -20 -2 -4 -8
-3 -9 4 -5 7 4 12 3 12 -2 0 -8 -104 -10 -177 -3 -6 1 -14 9 -16 19 -4 16 -5
16 -6 0 0 -10 -5 -18 -11 -18 -5 0 -10 8 -10 18 0 14 -2 15 -10 2 -8 -12 -10
-12 -11 5 0 11 -3 14 -6 8 -2 -7 -9 -13 -14 -13 -6 0 -7 5 -3 11 4 7 0 9 -13
5 -13 -4 -30 2 -48 16 -16 13 -25 16 -20 8 5 -8 -6 -4 -24 9 -18 13 -30 29
-28 35 3 7 -5 13 -16 14 -17 1 -19 -1 -7 -8 8 -5 10 -10 5 -10 -6 0 -22 13
-35 30 -14 16 -29 29 -34 30 -17 0 -156 147 -156 164 0 9 -5 16 -11 16 -5 0
-7 -6 -3 -12 3 -7 -9 3 -29 22 -19 19 -33 38 -30 43 2 4 -4 7 -14 7 -15 0 -16
2 -3 10 13 8 12 10 -3 10 -21 0 -47 23 -47 41 0 7 -3 10 -6 6 -3 -3 -17 5 -29
17 -27 27 -37 62 -17 58 8 -1 11 2 7 8 -4 6 -12 6 -24 -2 -15 -9 -23 -7 -44
14 -14 14 -23 29 -20 32 4 3 -1 6 -11 6 -9 0 -14 5 -11 10 3 6 1 10 -5 10 -15
0 -60 46 -53 54 4 3 1 6 -6 6 -18 0 -41 26 -41 47 0 15 -2 16 -10 3 -8 -13
-10 -12 -10 4 0 11 -3 17 -6 13 -9 -9 -54 39 -54 58 0 8 -5 15 -11 15 -5 0 -7
-6 -3 -12 4 -7 -5 -2 -19 11 -33 30 -34 35 -4 21 21 -11 21 -10 3 4 -18 15
-15 21 7 17 5 -1 6 3 2 9 -4 6 -12 6 -24 -2 -15 -9 -23 -7 -44 14 -14 14 -23
29 -20 32 4 3 -1 6 -11 6 -9 0 -14 5 -11 10 3 6 1 10 -5 10 -15 0 -60 46 -53
54 4 3 1 6 -6 6 -18 0 -41 26 -41 47 0 15 -2 16 -10 3 -8 -13 -10 -12 -10 3 0
10 -3 16 -7 14 -10 -6 -34 19 -26 27 4 3 0 6 -8 6 -8 0 -21 9 -29 20 -30 42
-97 71 -165 73 -32 1 -118 -34 -129 -52 -4 -6 -12 -9 -17 -5 -5 3 -9 2 -8 -3
3 -19 -2 -33 -12 -33 -5 0 -7 5 -3 12 4 7 3 8 -5 4 -6 -4 -9 -11 -6 -16 3 -4
-1 -11 -7 -13 -9 -4 -9 -6 -1 -6 6 -1 9 -10 6 -21 -3 -11 -9 -18 -13 -15 -4 3
-7 -3 -6 -13 0 -9 -5 -16 -12 -14 -8 1 -11 -2 -7 -8 3 -6 10 -8 15 -5 5 3 7
-7 6 -22 -2 -16 0 -38 5 -51 7 -17 6 -22 -4 -17 -6 4 -5 0 4 -7 9 -7 26 -31
38 -53 11 -22 21 -36 21 -31 0 5 50 -41 111 -103 100 -100 110 -113 98 -129
-13 -15 -12 -16 4 -3 11 9 17 10 17 2 0 -6 4 -10 8 -9 5 2 39 -27 76 -65 60
-60 67 -69 55 -85 -13 -15 -12 -16 4 -3 11 9 17 10 17 2 0 -6 4 -10 8 -9 14 5
374 -360 367 -371 -3 -6 0 -9 7 -6 15 6 198 -175 198 -195 0 -8 3 -10 7 -7 6
7 28 -18 33 -38 2 -5 11 -16 22 -23 10 -7 16 -18 12 -23 -8 -14 -16 -65 -9
-57 6 5 8 14 14 48 1 3 5 -2 11 -10 6 -9 5 -19 -2 -28 -6 -7 -7 -12 -2 -11 24
4 34 -3 34 -25 0 -14 4 -27 9 -30 5 -3 11 -17 13 -31 4 -16 1 -22 -6 -18 -6 4
-5 -1 2 -10 8 -9 10 -22 6 -28 -4 -8 -3 -9 4 -5 7 4 12 2 12 -3 0 -6 -6 -11
-12 -11 -10 0 -9 -3 1 -9 9 -6 13 -29 13 -77 -2 -116 -6 -139 -25 -138 -21 2
-23 -13 -2 -18 13 -3 13 -6 1 -31 -8 -15 -12 -27 -8 -27 4 0 0 -6 -8 -13 -8
-7 -15 -21 -15 -32 0 -13 -6 -19 -18 -19 -14 2 -15 -1 -6 -12 17 -21 -47 -106
-75 -98 -17 4 -18 3 -6 -5 27 -20 -9 -32 -39 -14 l-26 15 25 -20 c13 -11 29
-18 35 -15 5 3 5 0 -1 -6 -10 -10 -17 -10 -35 0 -22 11 -23 11 -9 -5 12 -16
11 -20 -10 -37 -14 -10 -30 -17 -37 -14 -7 2 -15 -1 -19 -7 -4 -7 -3 -8 4 -4
7 4 12 4 12 -1 0 -4 -17 -18 -39 -30 -29 -17 -41 -19 -50 -10 -10 9 -11 8 -5
-6 3 -10 3 -17 -2 -16 -5 1 -22 -3 -38 -10 -58 -24 -119 -33 -128 -19 -5 9 -8
7 -8 -7 0 -17 -2 -17 -10 -5 -5 8 -10 10 -10 4 0 -6 -7 -11 -15 -11 -8 0 -15
4 -15 9 0 4 -5 8 -11 8 -5 0 -8 -4 -5 -8 6 -11 -34 -9 -51 1 -8 5 -13 3 -13
-5 -1 -8 -6 -6 -15 6 -9 12 -15 15 -15 7 0 -9 -6 -11 -17 -6 -10 4 -27 8 -38
10 -11 1 -24 3 -28 4 -5 0 -6 5 -3 10 3 4 -6 6 -19 3 -15 -2 -25 0 -25 7 0 7
-3 10 -7 8 -13 -8 -55 12 -48 22 3 5 0 13 -6 17 -8 4 -9 3 -5 -4 4 -7 2 -12
-5 -12 -6 0 -9 8 -6 19 4 16 0 18 -20 15 -28 -5 -67 22 -56 39 3 6 1 7 -5 3
-16 -9 -214 184 -207 202 3 7 0 10 -6 7 -13 -9 -133 111 -124 124 3 6 0 9 -7
6 -18 -7 -322 300 -312 316 5 8 3 9 -5 5 -15 -9 -342 313 -334 328 4 5 1 6 -4
3 -13 -8 -36 17 -26 27 4 4 0 4 -9 1 -8 -3 -22 0 -29 7 -8 7 -27 15 -44 17
-16 1 -33 8 -37 15 -5 7 -8 8 -8 0 0 -6 -13 -11 -29 -12 -16 0 -43 -8 -60 -17
-17 -8 -31 -13 -31 -11 0 3 -11 -6 -25 -20 -29 -29 -55 -76 -55 -99 0 -10 -5
-13 -12 -9 -7 4 -8 3 -4 -5 4 -6 2 -19 -6 -28 -11 -14 -11 -16 1 -8 10 6 13 4
9 -6 -3 -8 -2 -23 2 -34 4 -11 3 -26 -3 -33 -8 -10 -7 -12 4 -10 8 2 13 -4 13
-14 -1 -10 1 -16 5 -13 11 6 43 -54 35 -67 -4 -7 -3 -8 4 -4 7 4 22 0 34 -8
15 -11 18 -16 8 -17 -8 0 -5 -4 8 -10 13 -5 20 -13 17 -19 -4 -6 -3 -9 2 -8
13 4 53 -26 53 -39 0 -6 9 -15 20 -18 11 -4 18 -11 15 -16 -4 -5 1 -9 9 -9 9
0 16 -5 16 -11 0 -5 -4 -8 -8 -5 -5 3 -9 -1 -9 -8 0 -7 6 -13 13 -13 7 0 11 4
8 9 -3 4 -2 8 2 8 12 0 63 -64 58 -72 -3 -5 -2 -7 3 -6 11 3 53 -25 53 -35 0
-4 -6 -5 -12 -1 -9 5 -9 2 1 -9 15 -18 26 -23 16 -7 -3 6 -1 10 4 10 6 0 11
-7 11 -16 0 -8 4 -13 9 -9 5 3 12 -3 15 -13 4 -10 17 -25 31 -32 19 -10 22
-16 13 -27 -6 -7 -8 -16 -4 -20 3 -3 6 -1 6 5 0 7 7 12 15 12 8 0 15 -4 15
-10 0 -5 -4 -10 -10 -10 -5 0 -10 -5 -10 -11 0 -8 4 -8 14 1 12 9 22 5 51 -25
30 -32 34 -40 23 -54 -11 -14 -11 -14 4 -3 14 11 20 9 41 -12 14 -14 21 -28
16 -31 -5 -4 -9 -12 -8 -18 0 -9 2 -9 6 1 6 14 33 16 33 2 0 -5 -4 -10 -10
-10 -5 0 -10 -5 -10 -11 0 -8 4 -8 14 1 12 9 22 5 51 -25 26 -27 33 -41 25
-50 -7 -9 -5 -16 7 -26 16 -12 17 -12 6 2 -13 16 -8 29 9 29 5 0 6 -4 3 -10
-3 -5 0 -10 7 -10 14 0 44 -40 40 -53 -1 -5 1 -6 6 -3 12 7 54 -38 45 -48 -4
-4 1 -4 11 0 14 5 17 4 12 -4 -4 -7 -1 -12 8 -12 10 0 16 -9 17 -22 0 -13 3
-18 5 -11 3 7 13 4 28 -10 12 -12 21 -25 19 -29 -2 -5 3 -8 11 -8 9 0 16 -5
16 -11 0 -5 -6 -7 -12 -3 -9 5 -9 2 1 -9 15 -18 26 -23 16 -7 -13 22 7 8 40
-27 19 -20 35 -43 35 -50 0 -7 5 -13 11 -13 5 0 7 6 4 13 -4 6 7 -3 25 -21 18
-20 29 -40 26 -48 -4 -9 -1 -12 5 -9 6 4 8 14 4 22 -4 13 -3 14 10 3 8 -7 15
-22 16 -34 0 -20 1 -21 9 -1 5 11 9 15 9 9 1 -7 9 -15 19 -18 39 -15 112 -63
105 -70 -5 -4 -1 -6 7 -5 18 4 110 -29 110 -40 0 -4 12 -7 28 -6 21 0 27 -4
25 -20 -1 -20 -1 -20 13 -1 14 20 14 20 14 0 0 -14 2 -16 9 -5 6 9 16 11 32 5
32 -10 44 -13 113 -19 66 -7 79 -12 71 -26 -3 -5 1 -6 10 -2 13 5 14 8 3 15
-8 5 13 7 55 5 37 -2 67 -1 67 3 0 4 7 7 15 7 10 0 14 -6 10 -16 -5 -14 -4
-15 7 0 19 22 44 29 58 16 10 -9 11 -9 5 2 -6 11 -4 13 8 8 10 -4 17 -1 17 6
0 8 4 6 10 -3 8 -12 10 -12 10 -1 0 11 3 11 15 1 13 -11 14 -10 10 1 -5 14 3
17 53 21 6 1 12 5 12 10 0 4 5 8 11 8 5 0 7 -6 4 -12 -4 -7 0 -5 9 6 9 11 22
16 31 12 9 -3 14 -2 12 2 -3 4 15 17 40 30 25 13 42 19 39 13 -4 -5 -1 -13 5
-17 7 -4 9 -3 5 4 -9 15 22 42 41 35 11 -4 14 -3 9 5 -4 7 -1 12 7 12 8 0 17
7 21 15 3 8 10 15 16 15 6 0 8 -5 5 -10 -3 -6 -4 -10 0 -10 3 0 10 12 16 26 5
15 12 24 16 20 3 -3 13 3 20 14 8 11 18 18 23 15 4 -3 11 2 14 11 3 8 11 12
17 8 7 -4 9 -3 6 3 -7 11 33 49 48 44 5 -1 7 1 3 5 -11 10 12 35 25 27 5 -3 7
-1 4 4 -9 14 32 65 45 57 7 -4 8 -2 4 4 -11 18 4 38 15 21 6 -10 8 -6 7 11 -2
18 2 25 13 24 9 -1 16 5 16 12 0 7 -5 11 -10 7 -5 -3 -1 6 8 21 9 14 21 24 25
21 5 -3 6 4 3 15 -3 12 0 20 6 20 7 0 9 5 6 10 -3 6 2 10 12 10 15 0 16 2 3
10 -10 6 -11 10 -3 10 7 0 12 3 11 7 -5 18 27 83 42 84 10 0 11 2 3 6 -7 2
-13 11 -13 19 0 9 4 13 9 10 5 -4 7 3 4 14 -3 11 -1 20 5 20 5 0 9 10 8 23 -1
13 4 21 12 19 9 -2 11 2 6 10 -15 23 -14 46 1 52 8 3 15 11 15 18 0 9 -3 8
-10 -2 -7 -11 -9 -7 -7 17 1 17 6 29 12 26 6 -3 5 0 -2 7 -10 11 -9 16 5 27
16 12 15 13 -3 7 -19 -5 -19 -5 -2 9 17 14 24 33 8 23 -5 -3 -9 28 -9 69 0 41
-3 79 -7 85 -3 5 -2 10 3 10 13 0 23 -27 16 -45 -4 -8 -1 -15 6 -15 6 0 8 -4
5 -10 -4 -6 1 -7 12 -3 16 6 17 5 3 -13 -14 -18 -14 -18 3 -5 18 14 18 15 -4
31 l-22 17 22 15 c11 8 19 17 16 19 -2 3 18 5 45 4 28 0 50 -2 50 -4 0 -2 -8
-10 -17 -18 -16 -13 -16 -13 5 -3 12 6 22 15 22 20 0 14 54 12 69 -2 9 -8 12
-9 7 -1 -4 7 9 14 36 19 59 11 71 11 86 0 9 -6 11 -5 7 6 -3 8 0 15 7 16 7 0
23 3 35 6 15 3 20 1 17 -9 -3 -7 0 -16 7 -21 8 -4 10 -3 5 4 -8 13 8 48 21 45
4 0 23 5 42 13 41 17 46 17 35 1 -5 -7 1 -2 12 11 12 14 27 21 33 18 6 -4 11
-2 11 5 0 8 4 8 15 -1 13 -11 14 -10 9 4 -4 10 -1 16 10 17 30 3 34 4 43 13 5
5 3 6 -4 2 -7 -4 -13 -2 -13 3 0 6 6 11 14 11 8 0 22 7 31 16 15 15 17 15 31
-2 14 -18 15 -18 5 2 -8 17 -7 25 4 34 8 6 19 9 25 5 6 -4 9 -1 8 5 -2 7 6 17
16 23 11 7 31 25 44 40 14 16 31 26 39 23 9 -4 11 -1 7 6 -4 6 0 16 8 22 8 6
17 19 21 30 5 11 13 16 23 12 8 -3 13 -2 9 3 -3 5 14 38 37 72 50 76 102 179
119 237 7 23 16 42 21 42 5 0 7 9 3 20 -3 11 -3 25 2 32 4 7 8 18 9 23 10 56
16 70 31 89 16 18 16 19 1 7 -16 -12 -18 -10 -15 27 1 22 5 38 8 36 4 -2 9 3
13 11 3 8 0 14 -5 12 -7 -1 -12 27 -14 76 -2 68 0 77 14 72 15 -5 15 -4 0 8
-28 21 -33 56 -12 80 12 14 13 18 2 9 -20 -15 -33 -4 -16 16 9 13 9 14 0 8 -9
-5 -13 -1 -13 11 0 11 -6 25 -12 32 -11 11 -10 12 2 6 12 -6 13 -5 3 6 -14 14
-18 33 -5 25 4 -2 8 5 9 17 0 12 -1 16 -4 10 -3 -7 -9 -13 -14 -13 -6 0 -7 5
-4 10 3 6 2 10 -3 10 -9 0 -37 78 -34 93 1 4 -2 7 -7 7 -5 0 -12 7 -15 16 -4
10 -2 13 7 9 6 -4 3 1 -8 10 -11 9 -18 24 -17 33 2 9 0 14 -4 10 -9 -10 -49
52 -45 70 1 7 -2 12 -6 11 -20 -3 -27 2 -13 11 13 8 13 10 -1 10 -9 0 -32 19
-52 43 -19 23 -217 224 -440 447 -223 222 -403 409 -400 414 3 5 2 6 -4 3 -5
-3 -49 34 -96 82 -48 49 -104 97 -125 107 -37 18 -177 29 -167 14z m375 -2760
c0 -5 -4 -10 -10 -10 -5 0 -10 5 -10 10 0 6 5 10 10 10 6 0 10 -4 10 -10z"/>
<path d="M3313 4647 c0 -8 6 -14 14 -14 9 0 10 4 2 14 -6 7 -12 13 -14 13 -1
0 -2 -6 -2 -13z"/>
<path d="M3670 4657 c0 -2 6 -10 14 -16 11 -9 16 -9 22 1 4 7 4 10 -1 6 -4 -4
-14 -3 -22 3 -7 6 -13 9 -13 6z"/>
<path d="M3705 4600 c10 -11 20 -20 23 -20 3 0 -3 9 -13 20 -10 11 -20 20 -23
20 -3 0 3 -9 13 -20z"/>
<path d="M3747 4579 c7 -7 15 -10 18 -7 3 3 -2 9 -12 12 -14 6 -15 5 -6 -5z"/>
<path d="M3776 4533 c-6 -14 -5 -15 5 -6 7 7 10 15 7 18 -3 3 -9 -2 -12 -12z"/>
<path d="M3795 4500 c3 -5 8 -10 11 -10 2 0 4 5 4 10 0 6 -5 10 -11 10 -5 0
-7 -4 -4 -10z"/>
<path d="M3846 4482 c-3 -5 1 -9 9 -9 8 0 12 4 9 9 -3 4 -7 8 -9 8 -2 0 -6 -4
-9 -8z"/>
<path d="M3893 4455 c0 -8 4 -12 9 -9 5 3 6 10 3 15 -9 13 -12 11 -12 -6z"/>
<path d="M3865 4440 c10 -11 20 -20 23 -20 3 0 -3 9 -13 20 -10 11 -20 20 -23
20 -3 0 3 -9 13 -20z"/>
<path d="M2350 4386 c0 -2 7 -7 16 -10 8 -3 12 -2 9 4 -6 10 -25 14 -25 6z"/>
<path d="M3966 4378 c3 -5 10 -6 15 -3 13 9 11 12 -6 12 -8 0 -12 -4 -9 -9z"/>
<path d="M2289 4363 c-13 -16 -12 -17 4 -4 16 13 21 21 13 21 -2 0 -10 -8 -17
-17z"/>
<path d="M2435 4370 c-4 -6 -11 -7 -17 -4 -7 4 -8 2 -4 -5 6 -9 11 -9 22 0 14
11 18 19 10 19 -3 0 -8 -5 -11 -10z"/>
<path d="M2469 4361 c-10 -15 -21 -17 -68 -13 -31 2 -59 9 -63 16 -5 7 -8 6
-8 -4 0 -10 -12 -16 -38 -17 -20 -1 -50 -4 -67 -6 -39 -5 -49 1 -33 21 12 15
11 16 -4 4 -10 -8 -16 -17 -15 -20 2 -8 -1 -10 -66 -29 -26 -8 -53 -11 -60 -7
-6 4 -9 3 -4 -1 8 -9 -55 -37 -90 -39 -11 0 -20 -4 -18 -7 2 -3 -22 -19 -53
-36 -92 -48 -106 -57 -120 -76 -7 -9 -17 -15 -22 -12 -4 3 -11 -2 -14 -11 -3
-8 -11 -12 -17 -8 -7 4 -9 3 -6 -3 6 -9 -37 -55 -45 -48 -1 2 -9 -3 -16 -11
-7 -8 -10 -14 -8 -14 3 0 -10 -16 -28 -35 -19 -19 -37 -41 -39 -48 -4 -9 -8
-8 -16 3 -9 12 -11 10 -9 -10 3 -20 -1 -25 -19 -24 -13 1 -20 -3 -17 -7 3 -5
10 -7 15 -4 5 4 9 1 9 -4 0 -6 -5 -11 -11 -11 -5 0 -8 -3 -5 -8 7 -11 -21 -45
-32 -38 -6 4 -8 -3 -4 -16 4 -16 2 -19 -8 -13 -8 5 -11 4 -7 -2 4 -6 -6 -36
-22 -66 -16 -31 -27 -57 -25 -60 2 -2 -2 -19 -9 -38 -8 -19 -18 -43 -22 -54
-5 -11 -7 -24 -6 -29 4 -19 -11 -46 -22 -39 -7 4 -6 -1 2 -10 7 -9 9 -17 4
-17 -5 0 -10 -7 -10 -15 0 -8 4 -15 9 -15 5 0 6 -5 3 -10 -4 -6 -11 -7 -17 -4
-7 5 -8 2 -2 -7 15 -24 13 -39 -4 -40 -14 0 -13 -2 3 -9 11 -5 15 -9 10 -9
-14 -1 -13 -54 0 -63 6 -5 5 -8 -2 -8 -13 0 -13 -26 0 -47 4 -6 1 -13 -5 -16
-10 -3 -10 -7 1 -20 7 -10 9 -17 5 -17 -5 0 -15 9 -22 21 -12 19 -35 23 -32 5
1 -5 -11 -17 -27 -27 -15 -10 -23 -19 -18 -19 6 1 19 7 29 15 10 8 24 11 30 8
6 -4 4 2 -4 12 -13 16 -13 18 0 13 15 -5 22 -38 7 -38 -4 0 -21 -7 -37 -15
-20 -10 -30 -12 -30 -4 0 6 -6 9 -14 6 -7 -3 -24 2 -37 10 -15 10 -19 11 -11
3 15 -18 16 -38 0 -22 -7 7 -17 8 -29 2 -11 -7 -20 -7 -24 0 -3 5 -11 10 -16
10 -6 0 -8 -4 -5 -9 3 -5 -8 -8 -24 -7 -17 1 -30 -2 -30 -7 0 -4 -5 -5 -11 -2
-6 4 -8 14 -5 22 4 8 1 11 -5 8 -6 -4 -8 -13 -5 -21 4 -11 -1 -13 -19 -10 -14
3 -25 0 -25 -5 0 -6 -4 -7 -10 -4 -5 3 -10 2 -10 -3 0 -5 -6 -9 -12 -9 -7 0
-33 -6 -58 -13 -50 -13 -56 -12 -52 10 2 13 1 13 -7 1 -5 -8 -7 -21 -3 -29 4
-11 1 -13 -7 -7 -7 4 -16 4 -20 -1 -12 -17 -52 -35 -64 -28 -7 4 -9 3 -4 -1
12 -13 -45 -46 -59 -34 -8 7 -11 5 -10 -7 0 -11 -9 -20 -24 -25 -14 -4 -20 -7
-15 -8 6 -1 -10 -14 -34 -30 -25 -17 -48 -28 -53 -25 -4 3 -5 -2 -2 -10 3 -9
-7 -23 -29 -38 -19 -12 -36 -27 -38 -33 -2 -5 -7 -9 -11 -7 -5 1 -8 -4 -8 -12
0 -8 -11 -23 -25 -34 -13 -11 -21 -22 -18 -26 3 -3 1 -6 -5 -6 -6 0 -14 -9
-17 -20 -4 -11 -11 -18 -16 -15 -5 4 -9 -1 -9 -10 0 -9 -8 -24 -18 -33 -10
-10 -11 -12 -3 -7 9 6 5 -3 -7 -19 -12 -16 -22 -34 -22 -41 0 -7 -7 -18 -15
-25 -9 -7 -13 -15 -11 -18 3 -2 -1 -14 -9 -26 -8 -11 -15 -29 -15 -39 0 -10
-4 -15 -10 -12 -6 3 -7 -1 -4 -9 3 -9 1 -16 -5 -16 -6 0 -8 -7 -5 -15 4 -8 1
-21 -5 -29 -6 -7 -9 -15 -6 -18 3 -2 0 -20 -6 -39 -6 -19 -13 -52 -16 -74 -3
-22 -10 -43 -17 -47 -7 -5 -7 -8 -1 -8 6 0 11 -11 11 -25 0 -14 -4 -25 -8 -25
-4 0 -8 -5 -8 -11 0 -5 3 -8 8 -6 4 3 7 -6 7 -19 0 -13 -4 -24 -8 -24 -5 0 -5
-6 0 -12 11 -19 13 -38 3 -38 -5 0 -14 8 -19 18 -6 9 -11 12 -11 5 0 -6 10
-19 22 -27 15 -11 18 -16 8 -16 -10 0 -11 -3 -4 -8 6 -4 14 -29 17 -57 3 -27
10 -63 16 -79 9 -23 9 -27 -3 -23 -15 6 -16 -17 -1 -30 4 -4 5 -2 1 5 -4 6 -3
12 3 12 5 0 13 -15 17 -32 4 -18 9 -35 10 -38 9 -24 16 -51 14 -56 -1 -4 2
-10 7 -13 14 -10 34 -62 27 -72 -3 -5 0 -8 8 -7 7 2 12 -5 12 -14 -1 -10 3
-16 8 -15 6 1 12 -6 13 -15 2 -9 12 -27 24 -39 20 -22 25 -34 22 -52 -1 -5 3
-6 8 -3 5 3 16 -5 25 -18 8 -14 27 -36 41 -50 25 -25 34 -43 16 -31 -5 3 -12
1 -16 -4 -3 -6 5 -8 20 -5 23 4 30 -4 26 -28 0 -5 2 -7 7 -7 18 3 32 -2 32
-12 0 -6 -9 -8 -22 -3 -13 3 -20 3 -15 -1 6 -7 18 -10 61 -14 4 -1 6 -8 3 -15
-4 -9 -1 -13 7 -10 6 2 24 -9 39 -26 27 -30 35 -46 18 -36 -11 7 -8 -21 4 -31
4 -4 5 -3 1 4 -3 6 -2 14 4 18 11 7 73 -49 63 -58 -3 -4 0 -7 9 -7 8 0 31 -18
51 -40 35 -37 47 -58 28 -46 -11 7 -8 -21 4 -31 4 -4 5 -3 1 4 -3 6 -2 14 3
17 13 8 43 -23 35 -36 -4 -7 -2 -8 5 -4 6 4 18 2 26 -4 18 -15 20 -34 3 -24
-7 4 -10 4 -6 -1 4 -4 2 -15 -4 -24 -9 -11 -6 -11 9 2 20 18 21 17 49 -9 16
-14 22 -23 13 -18 -8 5 -6 2 4 -6 40 -31 107 -95 107 -103 0 -5 -4 -6 -9 -3
-11 7 -8 -21 4 -31 4 -4 5 -3 1 4 -3 6 -2 14 4 18 15 9 113 -92 104 -106 -4
-7 -3 -9 4 -5 6 3 38 -20 71 -52 57 -54 78 -83 49 -66 -7 4 -10 4 -6 -1 4 -4
3 -13 -2 -20 -7 -8 -5 -12 5 -12 8 0 12 4 9 8 -2 4 0 10 5 14 13 8 63 -44 55
-57 -4 -7 -2 -8 5 -4 17 11 72 -48 65 -71 -4 -14 -4 -15 4 -4 11 16 32 6 32
-15 0 -8 5 -12 10 -9 6 3 10 2 10 -4 0 -5 21 -19 48 -32 26 -12 51 -28 55 -36
6 -10 13 -10 32 3 18 12 25 13 25 4 0 -9 4 -9 13 -3 6 6 22 9 34 8 12 -1 20 1
18 4 -2 4 14 17 36 29 21 12 39 18 39 12 0 -5 5 -10 11 -10 8 0 7 5 -1 15 -10
13 -10 19 5 35 10 11 21 17 26 15 4 -3 11 -1 14 5 4 6 3 9 -2 8 -8 -3 -13 5
-13 23 0 5 3 8 8 5 4 -2 7 26 7 64 0 37 -4 66 -9 63 -5 -3 -7 6 -4 20 4 18 1
24 -9 20 -12 -5 -18 8 -14 30 1 5 -2 6 -6 4 -5 -3 -24 11 -43 30 -19 20 -29
32 -22 29 6 -4 12 -2 12 3 0 6 -7 11 -16 11 -9 0 -50 34 -92 76 -43 43 -71 74
-64 70 6 -4 12 -2 12 3 0 6 -7 11 -16 11 -20 0 -47 27 -39 39 3 5 0 13 -6 17
-8 4 -9 3 -5 -4 12 -20 -4 -13 -30 13 -14 14 -22 30 -19 35 4 6 -1 7 -12 3
-16 -6 -16 -5 -4 10 12 15 12 17 -2 11 -17 -6 -71 39 -60 50 4 3 0 6 -9 6 -8
0 -25 12 -39 27 -13 14 -18 23 -11 19 6 -4 12 -2 12 3 0 6 -7 11 -16 11 -20 0
-47 27 -39 39 3 5 0 13 -6 17 -8 4 -9 3 -5 -4 15 -25 -6 -10 -61 44 -32 31
-52 53 -45 50 6 -4 12 -2 12 3 0 6 -7 11 -15 11 -19 0 -67 45 -58 54 4 3 -2 6
-13 6 -16 0 -17 2 -4 10 13 8 12 10 -3 10 -22 0 -50 26 -42 39 3 5 0 13 -6 17
-8 4 -9 3 -5 -4 12 -20 -4 -13 -30 13 -14 14 -23 29 -20 34 7 11 -28 43 -38
34 -8 -8 -116 96 -116 112 0 5 4 4 9 -3 6 -10 10 -10 20 1 9 12 6 14 -18 11
-35 -4 -49 10 -24 25 11 6 13 11 5 11 -7 0 -10 5 -6 12 4 7 3 8 -5 4 -6 -4 -9
-12 -6 -17 4 -5 -1 -9 -10 -9 -11 0 -15 5 -11 15 13 33 16 49 5 28 -13 -25
-29 -30 -29 -10 0 7 -9 23 -20 35 -21 22 -57 87 -62 112 -2 8 -7 18 -12 21 -5
4 -9 18 -9 33 1 14 -3 26 -7 26 -3 0 -7 6 -8 13 -6 68 -13 121 -17 125 -3 3 1
12 8 20 9 12 9 16 0 19 -9 3 -9 12 -2 30 5 13 7 29 3 34 -3 5 1 9 8 9 9 0 9 3
-2 10 -9 6 -10 10 -3 10 6 0 10 9 8 20 -2 11 1 20 6 20 6 0 7 5 3 12 -5 8 -2
9 11 4 15 -5 16 -4 5 9 -10 12 -10 18 0 30 7 8 9 15 6 15 -4 0 -2 9 4 20 6 11
15 18 20 15 5 -3 12 0 16 6 4 8 3 9 -4 5 -19 -12 -14 12 13 54 30 47 118 140
133 140 6 0 16 8 21 18 6 9 11 13 11 9 0 -4 6 -3 13 3 44 38 61 50 68 50 4 0
14 3 22 6 16 6 18 -11 5 -32 -4 -6 -1 -11 7 -11 7 0 12 8 10 17 -5 26 10 43
39 43 14 0 23 4 20 8 -7 13 19 7 28 -6 4 -6 8 -1 8 10 1 19 2 19 20 -4 11 -13
20 -19 20 -14 0 5 -6 15 -12 22 -11 11 -10 13 4 8 9 -3 18 -3 21 0 10 10 107
11 113 2 3 -6 0 -18 -8 -27 -12 -15 -11 -16 4 -4 9 8 22 11 27 8 5 -4 13 -1
17 5 4 7 3 9 -4 5 -6 -3 -13 -2 -17 4 -7 11 38 14 49 3 7 -8 12 -9 54 -11 13
-1 22 -9 23 -19 0 -11 3 -13 6 -5 2 6 9 12 14 12 6 0 7 -5 3 -12 -5 -7 -2 -9
7 -6 18 7 81 -26 71 -37 -4 -5 1 -5 10 -2 10 3 27 -4 45 -20 15 -15 29 -26 31
-25 1 1 5 2 10 2 4 0 0 -5 -8 -10 -12 -8 -11 -10 5 -10 22 0 149 -121 140
-133 -3 -4 -2 -5 2 -2 10 8 33 -16 26 -28 -3 -5 -2 -7 4 -4 5 3 25 -10 44 -30
19 -20 28 -33 21 -29 -8 5 -11 2 -10 -6 2 -7 -3 -12 -10 -10 -8 1 -11 -2 -7
-8 4 -6 12 -6 25 2 14 9 22 9 34 -1 9 -7 13 -17 10 -22 -3 -5 0 -8 8 -7 7 2
12 -3 10 -10 -1 -6 4 -12 11 -12 19 0 79 -65 70 -75 -5 -4 -3 -5 3 -2 14 8 47
-26 37 -37 -5 -4 -3 -6 2 -4 15 4 65 -43 58 -56 -3 -6 -2 -8 2 -3 12 10 66
-43 58 -57 -3 -6 -3 -8 2 -4 11 11 36 -12 28 -25 -3 -5 -2 -7 4 -4 13 8 175
-157 165 -168 -4 -5 1 -5 11 -2 22 8 22 -9 0 -23 -15 -9 -15 -10 5 -5 25 7 55
-11 45 -28 -3 -5 -2 -7 4 -4 5 3 55 -40 110 -96 56 -56 110 -107 120 -114 10
-6 17 -16 15 -23 -1 -6 2 -9 7 -6 5 4 12 0 14 -6 4 -10 6 -10 6 0 1 9 6 10 19
3 25 -13 112 -20 112 -8 0 5 9 7 20 4 11 -3 18 -2 15 3 -7 11 24 22 38 13 7
-3 9 -3 5 2 -4 4 -1 14 7 21 17 17 29 18 19 2 -4 -7 -3 -8 4 -4 6 4 9 13 6 20
-3 8 0 17 7 22 8 5 10 3 4 -7 -5 -8 -4 -10 0 -6 5 4 10 13 11 20 9 41 14 58
22 73 5 9 6 35 1 57 -4 23 -5 45 -3 49 3 5 1 8 -4 8 -5 0 -12 8 -16 18 -3 9
-9 23 -12 31 -5 9 -3 11 6 6 9 -6 11 -4 6 4 -5 7 -14 10 -22 7 -8 -3 -14 -2
-14 2 0 5 -47 55 -104 112 -58 57 -102 108 -99 114 3 5 2 6 -3 3 -13 -8 -326
307 -317 318 5 4 3 6 -3 2 -13 -7 -417 397 -406 408 4 4 2 5 -4 2 -6 -3 -27
12 -47 33 -20 22 -33 40 -29 40 4 0 -1 5 -10 11 -10 5 -18 17 -18 24 0 8 -5
15 -11 15 -5 0 -8 4 -5 9 3 5 -1 12 -9 15 -13 4 -13 9 -3 25 7 11 16 17 22 14
5 -4 6 -1 1 7 -6 10 -11 9 -21 -5 -12 -16 -15 -14 -34 29 -26 61 -37 108 -20
86 10 -13 11 -12 6 3 -3 10 -6 21 -6 23 0 3 -4 2 -10 -1 -5 -3 -10 1 -10 10 0
9 4 14 9 11 11 -7 9 14 -4 34 -15 24 -16 47 0 60 14 11 10 44 -5 35 -4 -2 -4
13 0 35 4 22 5 40 2 40 -2 0 2 7 9 17 8 9 13 18 12 20 -7 9 -2 23 7 18 6 -3
10 -1 10 4 0 6 -4 11 -10 11 -6 0 -6 9 -1 23 6 14 15 21 27 19 18 -3 18 -2 -1
13 -11 9 -14 13 -6 9 11 -5 13 -3 8 9 -3 9 -2 19 4 23 6 3 15 17 20 31 7 20
14 24 32 20 21 -6 21 -5 3 8 -17 13 -17 15 -3 21 10 3 17 12 17 18 0 13 103
110 138 130 11 6 30 17 42 24 19 12 21 12 15 0 -3 -7 0 -5 8 4 8 10 17 15 20
11 4 -3 7 -1 7 6 0 7 4 10 9 6 5 -3 12 -1 15 4 5 7 24 13 91 28 11 2 54 5 95
6 58 2 74 -1 72 -11 -1 -8 2 -11 8 -7 6 3 8 11 4 16 -4 7 7 8 32 4 22 -4 45
-7 51 -8 8 0 9 -4 3 -12 -6 -7 -3 -11 10 -11 10 0 16 4 14 8 -3 4 -2 8 2 8 9
0 91 -37 114 -51 8 -5 29 -16 45 -25 42 -23 85 -65 86 -83 0 -11 2 -12 6 -3 7
18 23 4 24 -21 0 -12 3 -16 6 -9 4 10 11 8 29 -9 13 -12 21 -26 18 -30 -3 -5
1 -9 9 -9 7 0 23 -11 35 -24 19 -22 19 -25 4 -29 -12 -3 -10 -5 6 -6 29 -1 58
-27 39 -34 -7 -3 -4 -6 6 -6 10 -1 35 -17 55 -37 20 -20 32 -34 27 -31 -6 3
-17 2 -24 -2 -9 -6 -5 -8 12 -8 14 0 38 -13 54 -28 27 -26 27 -27 3 -15 -24
10 -24 10 -6 -4 11 -9 25 -16 31 -16 6 0 21 -11 33 -24 19 -22 19 -25 4 -29
-12 -3 -9 -5 7 -6 27 -1 91 -61 92 -87 0 -11 3 -14 6 -7 7 19 33 -10 34 -39 0
-17 2 -19 7 -7 6 14 13 10 42 -19 19 -19 30 -32 25 -29 -6 3 -17 2 -24 -2 -9
-6 -5 -8 12 -8 14 0 38 -13 54 -28 27 -26 27 -27 3 -15 -24 10 -24 10 -6 -4
11 -9 25 -16 31 -16 6 0 21 -11 33 -24 19 -22 19 -25 4 -29 -10 -3 -7 -5 9 -6
15 0 32 -8 39 -16 11 -13 10 -15 -6 -10 -10 3 -8 0 6 -7 14 -7 36 -23 50 -36
l25 -24 -25 12 c-24 10 -24 10 -6 -4 11 -9 25 -16 31 -16 6 0 21 -11 33 -24
19 -22 19 -25 4 -29 -12 -3 -10 -5 6 -6 13 0 40 -17 60 -36 31 -30 35 -37 22
-46 -13 -9 -12 -10 2 -5 23 7 72 -36 57 -51 -8 -8 -7 -13 2 -18 7 -5 10 -4 5
3 -11 17 9 22 38 9 14 -7 24 -18 21 -24 -3 -10 0 -10 16 0 16 10 21 9 29 -3 6
-10 10 -11 10 -2 0 6 7 12 15 12 8 0 15 -6 15 -12 0 -10 2 -10 8 -1 4 7 17 14
27 16 11 1 26 6 33 10 6 5 17 5 24 1 6 -4 8 -3 5 3 -9 14 19 37 34 27 8 -4 9
-3 5 4 -4 6 1 20 11 30 10 10 19 25 21 33 2 7 9 17 15 21 7 4 8 8 3 8 -5 0 -2
8 5 17 10 11 10 14 2 9 -7 -4 -13 -2 -13 3 0 6 5 11 10 11 7 0 7 7 -1 21 -9
17 -8 20 3 14 10 -6 11 -5 1 6 -16 16 -17 33 -2 24 12 -8 -8 30 -30 58 -8 9
-10 17 -5 17 5 0 -2 7 -14 16 -12 8 -22 22 -22 30 0 8 -4 13 -8 12 -14 -5 -94
80 -87 92 3 5 0 8 -7 5 -18 -7 -162 141 -152 156 4 8 3 9 -5 5 -17 -11 -356
328 -345 345 5 8 3 9 -5 5 -15 -10 -136 108 -126 123 3 6 0 9 -7 6 -14 -5
-285 263 -280 278 1 4 -2 6 -8 2 -16 -10 -40 14 -33 33 4 13 3 14 -5 3 -8 -12
-13 -11 -31 1 -11 8 -18 18 -14 21 3 4 -2 7 -13 7 -10 0 -30 9 -44 20 -14 11
-29 20 -34 20 -5 0 -15 8 -23 18 -8 9 -12 11 -8 4 5 -10 1 -10 -19 0 -14 6
-26 15 -26 19 0 5 -8 5 -17 2 -12 -5 -15 -2 -10 9 4 12 1 14 -14 11 -10 -3
-32 0 -47 6 -16 7 -38 13 -50 14 -12 1 -22 4 -22 8 0 4 -8 6 -17 5 -24 -4 -35
15 -20 34 11 13 10 13 -5 1 -10 -7 -15 -17 -12 -22 3 -5 -2 -9 -11 -9 -9 0
-14 4 -11 8 2 4 -4 8 -15 8 -10 0 -19 -4 -19 -8 0 -4 -7 -5 -15 -2 -8 4 -15
10 -15 16 0 5 4 7 8 4 5 -3 9 1 9 9 0 20 -4 19 -18 -4z m-689 -1015 c0 -3 -4
-8 -10 -11 -5 -3 -10 -1 -10 4 0 6 5 11 10 11 6 0 10 -2 10 -4z m-423 -142 c0
-10 -10 -11 -35 -5 -2 1 -1 5 2 9 8 13 33 10 33 -4z m-392 -1613 c-6 -5 -25
10 -25 20 0 5 6 4 14 -3 8 -7 12 -15 11 -17z"/>
<path d="M2104 4358 c-4 -7 -3 -8 5 -4 6 4 20 2 29 -6 15 -12 16 -11 3 5 -16
20 -27 22 -37 5z"/>
<path d="M2656 4362 c-3 -5 1 -9 9 -9 8 0 12 4 9 9 -3 4 -7 8 -9 8 -2 0 -6 -4
-9 -8z"/>
<path d="M3976 4333 c-6 -14 -5 -15 5 -6 7 7 10 15 7 18 -3 3 -9 -2 -12 -12z"/>
<path d="M2675 4331 c-3 -5 -2 -12 3 -15 5 -3 9 1 9 9 0 17 -3 19 -12 6z"/>
<path d="M2813 4307 c-1 -11 -1 -18 0 -16 2 2 8 11 15 20 9 12 9 16 -1 16 -7
0 -14 -9 -14 -20z"/>
<path d="M4046 4298 c3 -5 10 -6 15 -3 13 9 11 12 -6 12 -8 0 -12 -4 -9 -9z"/>
<path d="M1955 4291 c-3 -5 -2 -12 3 -15 5 -3 9 1 9 9 0 17 -3 19 -12 6z"/>
<path d="M2900 4260 c-8 -5 -10 -10 -5 -10 6 0 17 5 25 10 8 5 11 10 5 10 -5
0 -17 -5 -25 -10z"/>
<path d="M4057 4255 c-4 -8 -3 -16 1 -19 4 -3 9 4 9 15 2 23 -3 25 -10 4z"/>
<path d="M1836 4247 c3 -10 9 -15 12 -12 3 3 0 11 -7 18 -10 9 -11 8 -5 -6z"/>
<path d="M3350 4256 c0 -2 8 -10 18 -17 15 -13 16 -12 3 4 -13 16 -21 21 -21
13z"/>
<path d="M2895 4231 c-3 -5 -2 -12 3 -15 5 -3 9 1 9 9 0 17 -3 19 -12 6z"/>
<path d="M4096 4213 c-6 -14 -5 -15 5 -6 7 7 10 15 7 18 -3 3 -9 -2 -12 -12z"/>
<path d="M3438 4198 c-9 -5 -6 -7 9 -5 12 2 25 6 28 8 8 9 -23 6 -37 -3z"/>
<path d="M4115 4180 c3 -5 8 -10 11 -10 2 0 4 5 4 10 0 6 -5 10 -11 10 -5 0
-7 -4 -4 -10z"/>
<path d="M3005 4140 c-3 -6 1 -7 9 -4 18 7 21 14 7 14 -6 0 -13 -4 -16 -10z"/>
<path d="M3055 4141 c-3 -5 -2 -12 3 -15 5 -3 9 1 9 9 0 17 -3 19 -12 6z"/>
<path d="M4206 4138 c3 -5 10 -6 15 -3 13 9 11 12 -6 12 -8 0 -12 -4 -9 -9z"/>
<path d="M1673 4105 c0 -8 4 -15 9 -15 4 0 8 4 8 9 0 6 -4 12 -8 15 -5 3 -9
-1 -9 -9z"/>
<path d="M1606 4098 c3 -5 10 -6 15 -3 13 9 11 12 -6 12 -8 0 -12 -4 -9 -9z"/>
<path d="M4217 4095 c-4 -8 -3 -16 1 -19 4 -3 9 4 9 15 2 23 -3 25 -10 4z"/>
<path d="M3075 4091 c-3 -5 -2 -12 3 -15 5 -3 9 1 9 9 0 17 -3 19 -12 6z"/>
<path d="M3113 4083 c4 -3 1 -13 -6 -22 -11 -14 -10 -14 5 -2 16 12 16 31 1
31 -4 0 -3 -3 0 -7z"/>
<path d="M4256 4053 c-6 -14 -5 -15 5 -6 7 7 10 15 7 18 -3 3 -9 -2 -12 -12z"/>
<path d="M1599 4033 c-13 -16 -12 -17 4 -4 16 13 21 21 13 21 -2 0 -10 -8 -17
-17z"/>
<path d="M3600 4040 c-12 -7 -10 -9 8 -7 12 0 22 5 22 9 0 11 -12 10 -30 -2z"/>
<path d="M4275 4020 c3 -5 8 -10 11 -10 2 0 4 5 4 10 0 6 -5 10 -11 10 -5 0
-7 -4 -4 -10z"/>
<path d="M1500 4006 c0 -2 8 -10 18 -17 15 -13 16 -12 3 4 -13 16 -21 21 -21
13z"/>
<path d="M1545 4000 c-3 -6 1 -7 9 -4 18 7 21 14 7 14 -6 0 -13 -4 -16 -10z"/>
<path d="M3150 4003 c0 -6 8 -17 18 -24 16 -13 16 -13 2 6 -8 11 -16 22 -17
24 -2 2 -3 0 -3 -6z"/>
<path d="M4319 3993 c-12 -16 -12 -17 2 -6 9 7 20 9 24 5 5 -4 5 -1 1 6 -9 16
-11 15 -27 -5z"/>
<path d="M4373 3975 c0 -8 4 -12 9 -9 5 3 6 10 3 15 -9 13 -12 11 -12 -6z"/>
<path d="M3196 3967 c3 -10 9 -15 12 -12 3 3 0 11 -7 18 -10 9 -11 8 -5 -6z"/>
<path d="M4345 3960 c10 -11 20 -20 23 -20 3 0 -3 9 -13 20 -10 11 -20 20 -23
20 -3 0 3 -9 13 -20z"/>
<path d="M3215 3940 c-3 -5 -1 -10 4 -10 6 0 11 5 11 10 0 6 -2 10 -4 10 -3 0
-8 -4 -11 -10z"/>
<path d="M3244 3922 c4 -3 14 -7 22 -8 9 -1 13 0 10 4 -4 3 -14 7 -22 8 -9 1
-13 0 -10 -4z"/>
<path d="M3737 3915 c-4 -8 -3 -16 1 -19 4 -3 9 4 9 15 2 23 -3 25 -10 4z"/>
<path d="M2353 3887 c-1 -11 -1 -18 0 -16 2 2 8 11 15 20 9 12 9 16 -1 16 -7
0 -14 -9 -14 -20z"/>
<path d="M4446 3898 c3 -5 10 -6 15 -3 13 9 11 12 -6 12 -8 0 -12 -4 -9 -9z"/>
<path d="M3258 3888 c5 -5 16 -8 23 -6 8 3 3 7 -10 11 -17 4 -21 3 -13 -5z"/>
<path d="M1485 3880 c-3 -5 -1 -10 4 -10 6 0 11 5 11 10 0 6 -2 10 -4 10 -3 0
-8 -4 -11 -10z"/>
<path d="M2196 3875 c-11 -8 -15 -15 -9 -15 7 0 15 5 18 10 4 6 11 7 17 4 7
-4 8 -2 4 4 -9 14 -7 15 -30 -3z"/>
<path d="M2270 3885 c0 -7 30 -13 34 -7 3 4 -4 9 -15 9 -10 1 -19 0 -19 -2z"/>
<path d="M2550 3880 c0 -5 7 -7 15 -4 11 5 14 1 9 -12 -5 -15 -4 -16 4 -4 6 8
8 18 6 22 -7 11 -34 10 -34 -2z"/>
<path d="M3300 3875 c-7 -9 -11 -17 -9 -20 3 -2 10 5 17 15 14 24 10 26 -8 5z"/>
<path d="M2413 3863 c4 -3 1 -13 -6 -22 -11 -14 -10 -14 5 -2 16 12 16 31 1
31 -4 0 -3 -3 0 -7z"/>
<path d="M4457 3855 c-4 -8 -3 -16 1 -19 4 -3 9 4 9 15 2 23 -3 25 -10 4z"/>
<path d="M2131 3844 c0 -11 3 -14 6 -6 3 7 2 16 -1 19 -3 4 -6 -2 -5 -13z"/>
<path d="M2630 3853 c5 -2 8 -9 4 -14 -3 -5 0 -9 6 -9 15 0 7 23 -8 26 -7 1
-8 0 -2 -3z"/>
<path d="M2100 3840 c-9 -6 -10 -10 -3 -10 6 0 15 5 18 10 8 12 4 12 -15 0z"/>
<path d="M2535 3840 c3 -5 8 -10 11 -10 2 0 4 5 4 10 0 6 -5 10 -11 10 -5 0
-7 -4 -4 -10z"/>
<path d="M2040 3798 c-15 -21 -17 -28 -6 -19 16 13 41 51 33 51 -2 0 -14 -15
-27 -32z"/>
<path d="M2668 3823 c10 -4 10 -8 0 -21 -12 -15 -11 -16 4 -3 19 14 15 32 -5
30 -8 0 -8 -2 1 -6z"/>
<path d="M3350 3815 c5 -7 6 -15 2 -19 -4 -4 0 -6 8 -4 8 2 14 -3 12 -10 -1
-8 2 -11 8 -7 8 5 6 13 -4 24 -9 10 -14 20 -11 23 3 2 -2 5 -10 5 -10 0 -12
-4 -5 -12z"/>
<path d="M4485 3820 c-3 -6 1 -7 9 -4 18 7 21 14 7 14 -6 0 -13 -4 -16 -10z"/>
<path d="M4535 3821 c-3 -5 -2 -12 3 -15 5 -3 9 1 9 9 0 17 -3 19 -12 6z"/>
<path d="M2001 3796 c-9 -11 -9 -16 1 -22 7 -4 10 -4 6 1 -4 4 -3 14 3 22 6 7
9 13 6 13 -2 0 -10 -6 -16 -14z"/>
<path d="M2075 3800 c3 -5 8 -10 11 -10 2 0 4 5 4 10 0 6 -5 10 -11 10 -5 0
-7 -4 -4 -10z"/>
<path d="M3846 3802 c-3 -5 1 -9 9 -9 8 0 15 4 15 9 0 4 -4 8 -9 8 -6 0 -12
-4 -15 -8z"/>
<path d="M1395 3780 c3 -5 8 -10 11 -10 2 0 4 5 4 10 0 6 -5 10 -11 10 -5 0
-7 -4 -4 -10z"/>
<path d="M2725 3780 c-3 -6 1 -7 9 -4 18 7 21 14 7 14 -6 0 -13 -4 -16 -10z"/>
<path d="M3390 3758 c0 -6 3 -8 7 -5 3 4 13 1 22 -6 14 -11 14 -10 2 6 -15 20
-31 22 -31 5z"/>
<path d="M1946 3724 c-23 -23 -20 -30 4 -9 11 10 20 20 20 22 0 7 -9 2 -24
-13z"/>
<path d="M3951 3714 c0 -11 3 -14 6 -6 3 7 2 16 -1 19 -3 4 -6 -2 -5 -13z"/>
<path d="M3466 3705 c-11 -8 -15 -15 -9 -15 6 0 16 7 23 15 16 19 11 19 -14 0z"/>
<path d="M1374 3698 c-4 -7 -4 -10 1 -6 4 4 15 2 24 -5 14 -11 14 -10 2 6 -16
20 -18 21 -27 5z"/>
<path d="M1913 3693 c0 -11 7 -20 14 -20 10 0 10 4 1 16 -7 9 -13 18 -15 20
-1 2 -1 -5 0 -16z"/>
<path d="M2836 3697 c3 -10 9 -15 12 -12 3 3 0 11 -7 18 -10 9 -11 8 -5 -6z"/>
<path d="M4605 3700 c-3 -6 1 -7 9 -4 18 7 21 14 7 14 -6 0 -13 -4 -16 -10z"/>
<path d="M2816 3687 c3 -10 9 -15 12 -12 3 3 0 11 -7 18 -10 9 -11 8 -5 -6z"/>
<path d="M4620 3686 c0 -2 8 -10 18 -17 15 -13 16 -12 3 4 -13 16 -21 21 -21
13z"/>
<path d="M2836 3661 c-3 -5 2 -15 12 -22 15 -12 16 -12 5 2 -7 9 -10 19 -6 22
3 4 4 7 0 7 -3 0 -8 -4 -11 -9z"/>
<path d="M3509 3637 c25 -27 43 -39 22 -14 -6 8 -7 18 -3 23 4 5 3 6 -2 2 -5
-4 -16 -2 -25 4 -9 7 -5 0 8 -15z"/>
<path d="M2878 3643 c7 -3 16 -2 19 1 4 3 -2 6 -13 5 -11 0 -14 -3 -6 -6z"/>
<path d="M3546 3638 c3 -5 10 -6 15 -3 13 9 11 12 -6 12 -8 0 -12 -4 -9 -9z"/>
<path d="M4033 3635 c0 -8 6 -16 14 -19 11 -4 11 -1 3 14 -13 24 -17 25 -17 5z"/>
<path d="M4656 3638 c3 -5 10 -6 15 -3 13 9 11 12 -6 12 -8 0 -12 -4 -9 -9z"/>
<path d="M1868 3623 c7 -3 16 -2 19 1 4 3 -2 6 -13 5 -11 0 -14 -3 -6 -6z"/>
<path d="M2270 3601 c0 -6 4 -13 10 -16 6 -3 7 1 4 9 -7 18 -14 21 -14 7z"/>
<path d="M2390 3581 c0 -6 4 -12 8 -15 5 -3 9 1 9 9 0 8 -4 15 -9 15 -4 0 -8
-4 -8 -9z"/>
<path d="M2896 3582 c-3 -5 1 -9 9 -9 8 0 12 4 9 9 -3 4 -7 8 -9 8 -2 0 -6 -4
-9 -8z"/>
<path d="M4080 3560 c-12 -7 -10 -9 8 -7 12 0 22 5 22 9 0 11 -12 10 -30 -2z"/>
<path d="M3627 3533 c3 -7 6 -13 8 -13 2 0 5 6 8 13 3 8 -1 14 -8 14 -7 0 -11
-6 -8 -14z"/>
<path d="M1810 3531 c0 -6 4 -13 10 -16 6 -3 7 1 4 9 -7 18 -14 21 -14 7z"/>
<path d="M2993 3526 c0 -7 6 -13 14 -13 7 0 13 4 13 8 0 4 -6 9 -13 12 -8 3
-14 0 -14 -7z"/>
<path d="M4756 3527 c3 -10 9 -15 12 -12 3 3 0 11 -7 18 -10 9 -11 8 -5 -6z"/>
<path d="M2530 3500 c0 -5 5 -10 11 -10 5 0 7 5 4 10 -3 6 -8 10 -11 10 -2 0
-4 -4 -4 -10z"/>
<path d="M3650 3496 c0 -2 8 -10 18 -17 15 -13 16 -12 3 4 -13 16 -21 21 -21
13z"/>
<path d="M2590 3481 c0 -6 4 -13 10 -16 6 -3 7 1 4 9 -7 18 -14 21 -14 7z"/>
<path d="M3695 3480 c-3 -5 -1 -10 4 -10 6 0 11 5 11 10 0 6 -2 10 -4 10 -3 0
-8 -4 -11 -10z"/>
<path d="M1286 3462 c-3 -5 1 -9 9 -9 8 0 12 4 9 9 -3 4 -7 8 -9 8 -2 0 -6 -4
-9 -8z"/>
<path d="M1316 3442 c-3 -5 1 -9 9 -9 8 0 12 4 9 9 -3 4 -7 8 -9 8 -2 0 -6 -4
-9 -8z"/>
<path d="M2590 3441 c0 -6 4 -13 10 -16 6 -3 7 1 4 9 -7 18 -14 21 -14 7z"/>
<path d="M4206 3442 c-3 -5 1 -9 9 -9 8 0 15 4 15 9 0 4 -4 8 -9 8 -6 0 -12
-4 -15 -8z"/>
<path d="M4833 3415 c0 -8 4 -12 9 -9 5 3 6 10 3 15 -9 13 -12 11 -12 -6z"/>
<path d="M3730 3416 c0 -2 8 -10 18 -17 15 -13 16 -12 3 4 -13 16 -21 21 -21
13z"/>
<path d="M3118 3403 c7 -3 16 -2 19 1 4 3 -2 6 -13 5 -11 0 -14 -3 -6 -6z"/>
<path d="M3780 3395 c-7 -9 -11 -17 -9 -20 3 -2 10 5 17 15 14 24 10 26 -8 5z"/>
<path d="M4246 3402 c-2 -4 4 -8 14 -8 10 0 16 4 14 8 -3 4 -9 8 -14 8 -5 0
-11 -4 -14 -8z"/>
<path d="M1315 3380 c-3 -5 -1 -10 4 -10 6 0 11 5 11 10 0 6 -2 10 -4 10 -3 0
-8 -4 -11 -10z"/>
<path d="M1790 3381 c0 -5 8 -15 18 -22 15 -12 16 -12 5 2 -7 9 -10 19 -6 22
3 4 1 7 -5 7 -7 0 -12 -4 -12 -9z"/>
<path d="M1290 3361 c0 -6 4 -13 10 -16 6 -3 7 1 4 9 -7 18 -14 21 -14 7z"/>
<path d="M2670 3361 c0 -6 4 -13 10 -16 6 -3 7 1 4 9 -7 18 -14 21 -14 7z"/>
<path d="M4866 3362 c-3 -5 1 -9 9 -9 8 0 12 4 9 9 -3 4 -7 8 -9 8 -2 0 -6 -4
-9 -8z"/>
<path d="M3166 3342 c-3 -5 1 -9 9 -9 8 0 12 4 9 9 -3 4 -7 8 -9 8 -2 0 -6 -4
-9 -8z"/>
<path d="M3827 3339 c7 -9 10 -19 6 -22 -3 -4 -1 -7 5 -7 17 0 15 16 -5 31
-16 12 -17 12 -6 -2z"/>
<path d="M3200 3331 c0 -6 4 -13 10 -16 6 -3 7 1 4 9 -7 18 -14 21 -14 7z"/>
<path d="M2695 3320 c3 -5 8 -10 11 -10 2 0 4 5 4 10 0 6 -5 10 -11 10 -5 0
-7 -4 -4 -10z"/>
<path d="M3186 3302 c-3 -5 1 -9 9 -9 8 0 12 4 9 9 -3 4 -7 8 -9 8 -2 0 -6 -4
-9 -8z"/>
<path d="M3855 3300 c-3 -5 -1 -10 4 -10 6 0 11 5 11 10 0 6 -2 10 -4 10 -3 0
-8 -4 -11 -10z"/>
<path d="M4340 3306 c0 -2 9 -6 20 -9 11 -3 18 -1 14 4 -5 9 -34 13 -34 5z"/>
<path d="M1301 3297 c2 -1 13 -9 24 -17 19 -14 19 -14 6 3 -7 9 -18 17 -24 17
-6 0 -8 -1 -6 -3z"/>
<path d="M1774 3283 c3 -3 17 -7 32 -9 14 -1 23 0 20 3 -3 4 -18 8 -32 9 -14
2 -24 0 -20 -3z"/>
<path d="M2753 3273 c0 -9 4 -10 14 -2 7 6 13 12 13 14 0 1 -6 2 -13 2 -8 0
-14 -6 -14 -14z"/>
<path d="M3886 3279 c4 -8 30 -6 38 2 3 3 -5 5 -19 5 -13 0 -22 -3 -19 -7z"/>
<path d="M4380 3260 c-12 -7 -10 -9 7 -7 12 0 19 5 17 9 -6 10 -6 10 -24 -2z"/>
<path d="M1253 3245 c0 -8 4 -12 9 -9 5 3 6 10 3 15 -9 13 -12 11 -12 -6z"/>
<path d="M3898 3248 c5 -5 16 -8 23 -6 8 3 3 7 -10 11 -17 4 -21 3 -13 -5z"/>
<path d="M1206 3238 c3 -5 10 -6 15 -3 13 9 11 12 -6 12 -8 0 -12 -4 -9 -9z"/>
<path d="M2776 3238 c3 -5 10 -6 15 -3 13 9 11 12 -6 12 -8 0 -12 -4 -9 -9z"/>
<path d="M3940 3235 c-19 -22 -8 -25 13 -3 9 10 13 18 8 18 -5 0 -14 -7 -21
-15z"/>
<path d="M1145 3220 c-3 -6 1 -7 9 -4 18 7 21 14 7 14 -6 0 -13 -4 -16 -10z"/>
<path d="M3320 3209 c0 -5 -6 -7 -12 -3 -7 4 -9 3 -5 -1 13 -15 36 -14 30 1
-6 17 -13 18 -13 3z"/>
<path d="M895 3201 c-3 -5 -2 -12 3 -15 5 -3 9 1 9 9 0 17 -3 19 -12 6z"/>
<path d="M2870 3183 c0 -6 8 -17 18 -24 16 -13 16 -13 2 6 -8 11 -16 22 -17
24 -2 2 -3 0 -3 -6z"/>
<path d="M3987 3179 c7 -7 15 -10 18 -7 3 3 -2 9 -12 12 -14 6 -15 5 -6 -5z"/>
<path d="M4005 3160 c-16 -7 -17 -9 -3 -9 9 -1 20 4 23 9 7 11 7 11 -20 0z"/>
<path d="M4950 3160 c0 -5 5 -10 11 -10 5 0 7 5 4 10 -3 6 -8 10 -11 10 -2 0
-4 -4 -4 -10z"/>
<path d="M750 3116 c7 -7 13 -7 20 0 6 6 3 10 -10 10 -13 0 -16 -4 -10 -10z"/>
<path d="M2270 3116 c0 -2 8 -10 18 -17 15 -13 16 -12 3 4 -13 16 -21 21 -21
13z"/>
<path d="M4430 3117 c0 -2 6 -10 14 -16 11 -9 16 -9 22 1 4 7 4 10 -1 6 -4 -4
-14 -3 -22 3 -7 6 -13 9 -13 6z"/>
<path d="M4073 3095 c0 -8 4 -12 9 -9 5 3 6 10 3 15 -9 13 -12 11 -12 -6z"/>
<path d="M3438 3083 c7 -3 16 -2 19 1 4 3 -2 6 -13 5 -11 0 -14 -3 -6 -6z"/>
<path d="M2270 3059 c0 -5 5 -7 10 -4 6 3 10 8 10 11 0 2 -4 4 -10 4 -5 0 -10
-5 -10 -11z"/>
<path d="M2312 3051 c6 -11 15 -18 19 -15 4 2 10 -2 12 -8 4 -8 6 -9 6 -2 1 7
-10 19 -24 28 -25 16 -25 16 -13 -3z"/>
<path d="M1870 3040 c0 -5 5 -10 11 -10 5 0 7 5 4 10 -3 6 -8 10 -11 10 -2 0
-4 -4 -4 -10z"/>
<path d="M2990 3041 c0 -6 4 -13 10 -16 6 -3 7 1 4 9 -7 18 -14 21 -14 7z"/>
<path d="M593 3013 c0 -9 4 -10 14 -2 7 6 13 12 13 14 0 1 -6 2 -13 2 -8 0
-14 -6 -14 -14z"/>
<path d="M2267 3019 c7 -7 15 -10 18 -7 3 3 -2 9 -12 12 -14 6 -15 5 -6 -5z"/>
<path d="M4136 3022 c-3 -4 4 -9 15 -9 23 -2 25 3 4 10 -8 4 -16 3 -19 -1z"/>
<path d="M2370 3016 c0 -2 8 -10 18 -17 15 -13 16 -12 3 4 -13 16 -21 21 -21
13z"/>
<path d="M2335 3000 c-3 -5 -1 -10 4 -10 6 0 11 5 11 10 0 6 -2 10 -4 10 -3 0
-8 -4 -11 -10z"/>
<path d="M3015 3000 c3 -5 8 -10 11 -10 2 0 4 5 4 10 0 6 -5 10 -11 10 -5 0
-7 -4 -4 -10z"/>
<path d="M1900 2986 c0 -2 8 -10 18 -17 15 -13 16 -12 3 4 -13 16 -21 21 -21
13z"/>
<path d="M2397 2969 c7 -7 15 -10 18 -7 3 3 -2 9 -12 12 -14 6 -15 5 -6 -5z"/>
<path d="M495 2961 c-3 -5 -2 -12 3 -15 5 -3 9 1 9 9 0 17 -3 19 -12 6z"/>
<path d="M3073 2953 c0 -9 4 -10 14 -2 7 6 13 12 13 14 0 1 -6 2 -13 2 -8 0
-14 -6 -14 -14z"/>
<path d="M4955 2960 c-3 -5 -1 -10 4 -10 6 0 11 5 11 10 0 6 -2 10 -4 10 -3 0
-8 -4 -11 -10z"/>
<path d="M1967 2939 c7 -7 15 -10 18 -7 3 3 -2 9 -12 12 -14 6 -15 5 -6 -5z"/>
<path d="M1940 2926 c0 -2 8 -10 18 -17 15 -13 16 -12 3 4 -13 16 -21 21 -21
13z"/>
<path d="M3096 2918 c3 -5 10 -6 15 -3 13 9 11 12 -6 12 -8 0 -12 -4 -9 -9z"/>
<path d="M3598 2923 c7 -3 16 -2 19 1 4 3 -2 6 -13 5 -11 0 -14 -3 -6 -6z"/>
<path d="M4953 2915 c0 -8 4 -12 9 -9 5 3 6 10 3 15 -9 13 -12 11 -12 -6z"/>
<path d="M2436 2902 c-3 -4 4 -9 15 -9 23 -2 25 3 4 10 -8 4 -16 3 -19 -1z"/>
<path d="M2490 2896 c0 -2 8 -10 18 -17 15 -13 16 -12 3 4 -13 16 -21 21 -21
13z"/>
<path d="M4450 2881 c0 -6 4 -13 10 -16 6 -3 7 1 4 9 -7 18 -14 21 -14 7z"/>
<path d="M3155 2860 c3 -5 8 -10 11 -10 2 0 4 5 4 10 0 6 -5 10 -11 10 -5 0
-7 -4 -4 -10z"/>
<path d="M3616 2862 c-3 -5 1 -9 9 -9 8 0 12 4 9 9 -3 4 -7 8 -9 8 -2 0 -6 -4
-9 -8z"/>
<path d="M390 2857 c0 -2 6 -10 14 -16 11 -9 16 -9 22 1 4 7 4 10 -1 6 -4 -4
-14 -3 -22 3 -7 6 -13 9 -13 6z"/>
<path d="M2516 2847 c3 -10 9 -15 12 -12 3 3 0 11 -7 18 -10 9 -11 8 -5 -6z"/>
<path d="M3680 2851 c0 -6 4 -13 10 -16 6 -3 7 1 4 9 -7 18 -14 21 -14 7z"/>
<path d="M3187 2839 c7 -7 15 -10 18 -7 3 3 -2 9 -12 12 -14 6 -15 5 -6 -5z"/>
<path d="M2045 2820 c-3 -6 1 -7 9 -4 18 7 21 14 7 14 -6 0 -13 -4 -16 -10z"/>
<path d="M4433 2813 c0 -9 4 -10 14 -2 7 6 13 12 13 14 0 1 -6 2 -13 2 -8 0
-14 -6 -14 -14z"/>
<path d="M336 2773 c-4 -9 -3 -20 1 -24 4 -4 9 3 9 17 2 28 -1 31 -10 7z"/>
<path d="M2126 2778 c3 -5 10 -6 15 -3 13 9 11 12 -6 12 -8 0 -12 -4 -9 -9z"/>
<path d="M3720 2780 c8 -5 20 -10 25 -10 6 0 3 5 -5 10 -8 5 -19 10 -25 10 -5
0 -3 -5 5 -10z"/>
<path d="M1235 2770 c3 -5 8 -10 11 -10 2 0 4 5 4 10 0 6 -5 10 -11 10 -5 0
-7 -4 -4 -10z"/>
<path d="M1155 2760 c-3 -5 -1 -10 4 -10 6 0 11 5 11 10 0 6 -2 10 -4 10 -3 0
-8 -4 -11 -10z"/>
<path d="M1209 2757 c6 -8 7 -18 3 -22 -4 -5 -1 -5 6 -1 10 6 10 11 1 22 -6 8
-14 14 -16 14 -3 0 0 -6 6 -13z"/>
<path d="M4410 2760 c0 -5 5 -10 11 -10 5 0 7 5 4 10 -3 6 -8 10 -11 10 -2 0
-4 -4 -4 -10z"/>
<path d="M4917 2755 c-4 -8 -3 -16 1 -19 4 -3 9 4 9 15 2 23 -3 25 -10 4z"/>
<path d="M1346 2745 c-11 -8 -15 -15 -9 -15 6 0 16 7 23 15 16 19 11 19 -14 0z"/>
<path d="M313 2735 c0 -8 4 -12 9 -9 5 3 6 10 3 15 -9 13 -12 11 -12 -6z"/>
<path d="M2166 2742 c-3 -5 1 -9 9 -9 8 0 12 4 9 9 -3 4 -7 8 -9 8 -2 0 -6 -4
-9 -8z"/>
<path d="M2596 2742 c-3 -4 4 -9 15 -9 23 -2 25 3 4 10 -8 4 -16 3 -19 -1z"/>
<path d="M1030 2730 c-8 -5 -12 -12 -9 -15 4 -3 12 1 19 10 14 17 11 19 -10 5z"/>
<path d="M2660 2728 c14 -16 13 -31 -2 -22 -7 5 -8 3 -3 -5 5 -9 10 -10 18 -2
8 8 6 15 -6 26 -9 8 -12 10 -7 3z"/>
<path d="M1360 2720 c-9 -6 -10 -10 -3 -10 6 0 15 5 18 10 8 12 4 12 -15 0z"/>
<path d="M4387 2717 c2 -4 16 -5 30 -3 38 7 38 14 -1 12 -19 0 -32 -4 -29 -9z"/>
<path d="M945 2710 c-3 -6 1 -7 9 -4 18 7 21 14 7 14 -6 0 -13 -4 -16 -10z"/>
<path d="M1466 2703 c-6 -14 -5 -15 5 -6 7 7 10 15 7 18 -3 3 -9 -2 -12 -12z"/>
<path d="M3280 2716 c0 -2 7 -7 16 -10 8 -3 12 -2 9 4 -6 10 -25 14 -25 6z"/>
<path d="M1415 2700 c3 -5 8 -10 11 -10 2 0 4 5 4 10 0 6 -5 10 -11 10 -5 0
-7 -4 -4 -10z"/>
<path d="M2206 2698 c3 -5 10 -6 15 -3 13 9 11 12 -6 12 -8 0 -12 -4 -9 -9z"/>
<path d="M3975 2701 c-3 -5 -2 -12 3 -15 5 -3 9 1 9 9 0 17 -3 19 -12 6z"/>
<path d="M4930 2701 c0 -6 4 -13 10 -16 6 -3 7 1 4 9 -7 18 -14 21 -14 7z"/>
<path d="M916 2681 c9 -9 34 -9 34 -1 0 5 -9 8 -20 7 -10 -1 -17 -3 -14 -6z"/>
<path d="M2684 2679 c-4 -7 -3 -9 4 -5 5 3 13 0 15 -6 4 -9 6 -10 6 -1 1 17
-16 25 -25 12z"/>
<path d="M3354 2676 c1 -8 5 -18 8 -22 4 -3 5 1 4 10 -1 8 -5 18 -8 22 -4 3
-5 -1 -4 -10z"/>
<path d="M4900 2680 c8 -5 20 -10 25 -10 6 0 3 5 -5 10 -8 5 -19 10 -25 10 -5
0 -3 -5 5 -10z"/>
<path d="M1561 2650 c14 -31 19 -36 19 -24 0 6 -7 19 -16 30 -14 18 -14 18 -3
-6z"/>
<path d="M2216 2653 c-6 -14 -5 -15 5 -6 7 7 10 15 7 18 -3 3 -9 -2 -12 -12z"/>
<path d="M2655 2660 c-3 -5 -1 -10 4 -10 6 0 11 5 11 10 0 6 -2 10 -4 10 -3 0
-8 -4 -11 -10z"/>
<path d="M295 2649 c-4 -6 -5 -12 -2 -15 2 -3 7 2 10 11 7 17 1 20 -8 4z"/>
<path d="M875 2649 c-4 -6 -5 -12 -2 -15 2 -3 7 2 10 11 7 17 1 20 -8 4z"/>
<path d="M1536 2647 c3 -10 9 -15 12 -12 3 3 0 11 -7 18 -10 9 -11 8 -5 -6z"/>
<path d="M2733 2645 c0 -8 3 -13 5 -10 3 3 15 -3 26 -12 15 -13 14 -10 -3 10
-29 32 -28 31 -28 12z"/>
<path d="M925 2640 c-3 -6 1 -7 9 -4 18 7 21 14 7 14 -6 0 -13 -4 -16 -10z"/>
<path d="M3390 2642 c0 -5 7 -9 15 -9 8 0 12 4 9 9 -3 4 -9 8 -15 8 -5 0 -9
-4 -9 -8z"/>
<path d="M4899 2633 c-13 -16 -12 -17 4 -4 16 13 21 21 13 21 -2 0 -10 -8 -17
-17z"/>
<path d="M2236 2618 c3 -4 11 -5 19 -1 21 7 19 12 -4 10 -11 0 -18 -5 -15 -9z"/>
<path d="M2295 2621 c-3 -5 -2 -12 3 -15 5 -3 9 1 9 9 0 17 -3 19 -12 6z"/>
<path d="M4376 2617 c3 -10 9 -15 12 -12 3 3 0 11 -7 18 -10 9 -11 8 -5 -6z"/>
<path d="M816 2605 c-3 -8 -1 -15 4 -15 6 0 10 7 10 15 0 8 -2 15 -4 15 -2 0
-6 -7 -10 -15z"/>
<path d="M1580 2606 c0 -2 8 -10 18 -17 15 -13 16 -12 3 4 -13 16 -21 21 -21
13z"/>
<path d="M1624 2591 c0 -11 5 -17 13 -14 10 4 11 9 2 19 -15 18 -15 18 -15 -5z"/>
<path d="M255 2589 c-4 -6 -5 -12 -2 -15 2 -3 7 2 10 11 7 17 1 20 -8 4z"/>
<path d="M3400 2596 c0 -2 7 -7 16 -10 8 -3 12 -2 9 4 -6 10 -25 14 -25 6z"/>
<path d="M2750 2579 c0 -5 5 -7 10 -4 6 3 10 8 10 11 0 2 -4 4 -10 4 -5 0 -10
-5 -10 -11z"/>
<path d="M2792 2574 c10 -10 20 -16 22 -13 3 3 -5 11 -17 18 -21 13 -21 12 -5
-5z"/>
<path d="M3470 2580 c0 -5 5 -10 11 -10 5 0 7 5 4 10 -3 6 -8 10 -11 10 -2 0
-4 -4 -4 -10z"/>
<path d="M770 2562 c0 -4 11 -8 25 -8 28 0 24 8 -5 13 -11 2 -20 -1 -20 -5z"/>
<path d="M1654 2562 c4 -3 14 -7 22 -8 9 -1 13 0 10 4 -4 3 -14 7 -22 8 -9 1
-13 0 -10 -4z"/>
<path d="M3430 2566 c0 -2 7 -7 16 -10 8 -3 12 -2 9 4 -6 10 -25 14 -25 6z"/>
<path d="M4296 2562 c-3 -5 1 -9 9 -9 8 0 12 4 9 9 -3 4 -7 8 -9 8 -2 0 -6 -4
-9 -8z"/>
<path d="M4855 2561 c-3 -5 -2 -12 3 -15 5 -3 9 1 9 9 0 17 -3 19 -12 6z"/>
<path d="M2336 2533 c-6 -14 -5 -15 5 -6 7 7 10 15 7 18 -3 3 -9 -2 -12 -12z"/>
<path d="M3470 2539 c0 -5 5 -7 10 -4 6 3 10 8 10 11 0 2 -4 4 -10 4 -5 0 -10
-5 -10 -11z"/>
<path d="M750 2529 c0 -5 -5 -7 -12 -3 -7 4 -8 3 -4 -5 6 -9 11 -9 22 0 17 14
18 19 4 19 -5 0 -10 -5 -10 -11z"/>
<path d="M2836 2527 c3 -10 9 -15 12 -12 3 3 0 11 -7 18 -10 9 -11 8 -5 -6z"/>
<path d="M3510 2518 c0 -4 4 -8 9 -8 6 0 12 4 15 8 3 5 -1 9 -9 9 -8 0 -15 -4
-15 -9z"/>
<path d="M1713 2503 c4 -3 1 -13 -6 -22 -11 -14 -10 -14 6 -2 20 15 22 31 5
31 -6 0 -8 -3 -5 -7z"/>
<path d="M2355 2500 c3 -5 8 -10 11 -10 2 0 4 5 4 10 0 6 -5 10 -11 10 -5 0
-7 -4 -4 -10z"/>
<path d="M2410 2500 c0 -5 5 -10 11 -10 5 0 7 5 4 10 -3 6 -8 10 -11 10 -2 0
-4 -4 -4 -10z"/>
<path d="M724 2485 c-18 -15 -18 -15 0 -8 15 5 17 3 11 -8 -5 -8 -4 -11 0 -6
8 7 17 37 11 37 -1 0 -11 -7 -22 -15z"/>
<path d="M2880 2493 c0 -6 8 -17 18 -24 16 -13 16 -13 2 6 -8 11 -16 22 -17
24 -2 2 -3 0 -3 -6z"/>
<path d="M4827 2487 c-3 -8 1 -14 8 -14 7 0 11 6 8 14 -3 7 -6 13 -8 13 -2 0
-5 -6 -8 -13z"/>
<path d="M3593 2475 c0 -8 4 -12 9 -9 5 3 6 10 3 15 -9 13 -12 11 -12 -6z"/>
<path d="M4250 2479 c0 -5 5 -7 10 -4 6 3 10 8 10 11 0 2 -4 4 -10 4 -5 0 -10
-5 -10 -11z"/>
<path d="M2416 2467 c3 -10 9 -15 12 -12 3 3 0 11 -7 18 -10 9 -11 8 -5 -6z"/>
<path d="M2447 2459 c7 -7 15 -10 18 -7 3 3 -2 9 -12 12 -14 6 -15 5 -6 -5z"/>
<path d="M2943 2442 c10 -10 15 -21 12 -24 -3 -2 2 -5 10 -5 12 0 10 6 -7 24
-25 27 -39 32 -15 5z"/>
<path d="M3675 2451 c-3 -5 -2 -12 3 -15 5 -3 9 1 9 9 0 17 -3 19 -12 6z"/>
<path d="M200 2440 c-12 -7 -10 -9 7 -7 12 0 19 5 17 9 -6 10 -6 10 -24 -2z"/>
<path d="M1235 2440 c-3 -5 -1 -10 4 -10 6 0 11 5 11 10 0 6 -2 10 -4 10 -3 0
-8 -4 -11 -10z"/>
<path d="M1766 2442 c-3 -5 1 -9 9 -9 8 0 15 4 15 9 0 4 -4 8 -9 8 -6 0 -12
-4 -15 -8z"/>
<path d="M2895 2440 c-3 -5 -1 -10 4 -10 6 0 11 5 11 10 0 6 -2 10 -4 10 -3 0
-8 -4 -11 -10z"/>
<path d="M3606 2438 c3 -4 9 -8 15 -8 5 0 9 4 9 8 0 5 -7 9 -15 9 -8 0 -12 -4
-9 -9z"/>
<path d="M2430 2436 c0 -2 8 -10 18 -17 15 -13 16 -12 3 4 -13 16 -21 21 -21
13z"/>
<path d="M680 2420 c-9 -6 -10 -10 -3 -10 6 0 15 5 18 10 8 12 4 12 -15 0z"/>
<path d="M3650 2419 c0 -5 5 -7 10 -4 6 3 10 8 10 11 0 2 -4 4 -10 4 -5 0 -10
-5 -10 -11z"/>
<path d="M3760 2420 c-9 -6 -10 -10 -3 -10 6 0 15 5 18 10 8 12 4 12 -15 0z"/>
<path d="M3793 2405 c0 -8 4 -12 9 -9 5 3 6 10 3 15 -9 13 -12 11 -12 -6z"/>
<path d="M190 2401 c0 -6 4 -13 10 -16 6 -3 7 1 4 9 -7 18 -14 21 -14 7z"/>
<path d="M716 2398 c3 -5 10 -6 15 -3 13 9 11 12 -6 12 -8 0 -12 -4 -9 -9z"/>
<path d="M1130 2399 c0 -5 5 -7 10 -4 6 3 10 8 10 11 0 2 -4 4 -10 4 -5 0 -10
-5 -10 -11z"/>
<path d="M1730 2406 c0 -2 7 -7 16 -10 8 -3 12 -2 9 4 -6 10 -25 14 -25 6z"/>
<path d="M2465 2400 c-3 -6 1 -7 9 -4 18 7 21 14 7 14 -6 0 -13 -4 -16 -10z"/>
<path d="M3670 2399 c0 -5 5 -7 10 -4 6 3 10 8 10 11 0 2 -4 4 -10 4 -5 0 -10
-5 -10 -11z"/>
<path d="M4025 2399 c-4 -6 -5 -12 -2 -15 2 -3 7 2 10 11 7 17 1 20 -8 4z"/>
<path d="M4793 2393 c0 -9 4 -10 14 -2 7 6 13 12 13 14 0 1 -6 2 -13 2 -8 0
-14 -6 -14 -14z"/>
<path d="M1375 2389 c-4 -6 -5 -12 -2 -15 2 -3 7 2 10 11 7 17 1 20 -8 4z"/>
<path d="M2485 2380 c-3 -6 1 -7 9 -4 18 7 21 14 7 14 -6 0 -13 -4 -16 -10z"/>
<path d="M2535 2381 c-3 -5 -2 -12 3 -15 5 -3 9 1 9 9 0 17 -3 19 -12 6z"/>
<path d="M2999 2388 c-10 -33 6 -46 28 -24 4 4 1 6 -7 4 -8 -1 -14 3 -12 10 2
10 -6 19 -9 10z"/>
<path d="M3870 2375 c5 -7 8 -14 5 -17 -3 -2 2 -5 10 -5 10 0 12 4 5 12 -5 7
-8 14 -5 17 3 2 -2 5 -10 5 -10 0 -12 -4 -5 -12z"/>
<path d="M3987 2379 c7 -7 15 -10 18 -7 3 3 -2 9 -12 12 -14 6 -15 5 -6 -5z"/>
<path d="M4756 2382 c-3 -5 1 -9 9 -9 8 0 12 4 9 9 -3 4 -7 8 -9 8 -2 0 -6 -4
-9 -8z"/>
<path d="M693 2352 c-1 -22 0 -24 9 -8 6 10 6 22 2 26 -5 5 -10 -3 -11 -18z"/>
<path d="M3798 2373 c7 -3 16 -2 19 1 4 3 -2 6 -13 5 -11 0 -14 -3 -6 -6z"/>
<path d="M3835 2370 c-3 -5 -1 -10 4 -10 6 0 11 5 11 10 0 6 -2 10 -4 10 -3 0
-8 -4 -11 -10z"/>
<path d="M3030 2342 c0 -5 7 -9 15 -9 8 0 12 4 9 9 -3 4 -9 8 -15 8 -5 0 -9
-4 -9 -8z"/>
<path d="M4750 2340 c0 -5 5 -10 11 -10 5 0 7 5 4 10 -3 6 -8 10 -11 10 -2 0
-4 -4 -4 -10z"/>
<path d="M645 2319 c-3 -4 2 -6 10 -5 21 3 28 13 10 13 -9 0 -18 -4 -20 -8z"/>
<path d="M694 2302 c3 -6 -2 -15 -11 -21 -10 -6 -13 -11 -7 -11 20 0 37 27 23
36 -7 4 -9 3 -5 -4z"/>
<path d="M2565 2300 c-3 -6 1 -7 9 -4 18 7 21 14 7 14 -6 0 -13 -4 -16 -10z"/>
<path d="M2615 2301 c-3 -5 -2 -12 3 -15 5 -3 9 1 9 9 0 17 -3 19 -12 6z"/>
<path d="M3068 2303 c6 -2 9 -10 6 -15 -4 -7 -2 -8 5 -4 13 9 5 26 -12 25 -9
0 -8 -2 1 -6z"/>
<path d="M3096 2272 c-2 -4 4 -8 14 -8 10 0 16 4 14 8 -3 4 -9 8 -14 8 -5 0
-11 -4 -14 -8z"/>
<path d="M1953 2248 c-2 -18 0 -20 7 -8 12 18 13 30 2 30 -4 0 -9 -10 -9 -22z"/>
<path d="M3050 2259 c0 -5 5 -7 10 -4 6 3 10 8 10 11 0 2 -4 4 -10 4 -5 0 -10
-5 -10 -11z"/>
<path d="M1460 2246 c7 -7 13 -7 20 0 6 6 3 10 -10 10 -13 0 -16 -4 -10 -10z"/>
<path d="M1496 2242 c-3 -5 1 -9 9 -9 8 0 12 4 9 9 -3 4 -7 8 -9 8 -2 0 -6 -4
-9 -8z"/>
<path d="M3135 2229 c-4 -6 -5 -12 -2 -15 2 -3 7 2 10 11 7 17 1 20 -8 4z"/>
<path d="M2656 2213 c-6 -14 -5 -15 5 -6 7 7 10 15 7 18 -3 3 -9 -2 -12 -12z"/>
<path d="M3155 2220 c-3 -5 -1 -10 4 -10 6 0 11 5 11 10 0 6 -2 10 -4 10 -3 0
-8 -4 -11 -10z"/>
<path d="M1490 2216 c0 -2 8 -10 18 -17 15 -13 16 -12 3 4 -13 16 -21 21 -21
13z"/>
<path d="M1535 2200 c-3 -5 -1 -10 4 -10 6 0 11 5 11 10 0 6 -2 10 -4 10 -3 0
-8 -4 -11 -10z"/>
<path d="M175 2189 c-4 -6 -5 -12 -2 -15 2 -3 7 2 10 11 7 17 1 20 -8 4z"/>
<path d="M640 2180 c-12 -7 -12 -11 -2 -20 6 -5 10 -7 7 -4 -3 4 0 13 6 21 13
15 10 16 -11 3z"/>
<path d="M2675 2180 c3 -5 8 -10 11 -10 2 0 4 5 4 10 0 6 -5 10 -11 10 -5 0
-7 -4 -4 -10z"/>
<path d="M2706 2182 c-3 -5 1 -9 9 -9 8 0 12 4 9 9 -3 4 -7 8 -9 8 -2 0 -6 -4
-9 -8z"/>
<path d="M3135 2180 c-3 -5 -1 -10 4 -10 6 0 11 5 11 10 0 6 -2 10 -4 10 -3 0
-8 -4 -11 -10z"/>
<path d="M4596 2181 c-3 -5 2 -15 12 -22 15 -12 16 -12 5 2 -7 9 -10 19 -6 22
3 4 4 7 0 7 -3 0 -8 -4 -11 -9z"/>
<path d="M1573 2145 c0 -8 4 -12 9 -9 5 3 6 10 3 15 -9 13 -12 11 -12 -6z"/>
<path d="M3215 2119 c1 -10 4 -21 8 -24 4 -3 5 -2 2 2 -3 3 0 12 5 18 7 9 6
14 -3 18 -9 3 -13 -2 -12 -14z"/>
<path d="M4510 2121 c0 -6 4 -13 10 -16 6 -3 7 1 4 9 -7 18 -14 21 -14 7z"/>
<path d="M2113 2095 c0 -8 4 -12 9 -9 4 3 8 9 8 15 0 5 -4 9 -8 9 -5 0 -9 -7
-9 -15z"/>
<path d="M2765 2100 c-3 -6 1 -7 9 -4 18 7 21 14 7 14 -6 0 -13 -4 -16 -10z"/>
<path d="M1632 2073 c24 -25 38 -32 18 -8 -6 8 -9 18 -7 22 3 5 -3 9 -13 9
-18 0 -18 -2 2 -23z"/>
<path d="M2070 2085 c0 -5 5 -17 10 -25 5 -8 10 -10 10 -5 0 6 -5 17 -10 25
-5 8 -10 11 -10 5z"/>
<path d="M657 2055 c-4 -8 -3 -16 1 -19 4 -3 9 4 9 15 2 23 -3 25 -10 4z"/>
<path d="M1016 2058 c3 -5 10 -6 15 -3 13 9 11 12 -6 12 -8 0 -12 -4 -9 -9z"/>
<path d="M2805 2060 c-3 -6 1 -7 9 -4 18 7 21 14 7 14 -6 0 -13 -4 -16 -10z"/>
<path d="M695 2049 c-4 -6 -5 -12 -2 -15 2 -3 7 2 10 11 7 17 1 20 -8 4z"/>
<path d="M1700 2035 c-7 -9 -11 -17 -9 -20 3 -2 10 5 17 15 14 24 10 26 -8 5z"/>
<path d="M2159 2033 c-12 -16 -12 -17 2 -6 9 7 19 10 22 6 4 -3 7 -1 7 5 0 17
-16 15 -31 -5z"/>
<path d="M2853 2035 c0 -8 4 -12 9 -9 5 3 6 10 3 15 -9 13 -12 11 -12 -6z"/>
<path d="M3280 2029 c0 -5 -6 -7 -12 -3 -7 4 -9 3 -5 -1 13 -15 36 -14 30 1
-6 17 -13 18 -13 3z"/>
<path d="M2876 2015 c-3 -9 -11 -13 -17 -9 -8 5 -9 3 -4 -5 6 -10 11 -9 23 3
9 8 13 18 10 21 -3 3 -8 -1 -12 -10z"/>
<path d="M675 1991 c-3 -5 -2 -12 3 -15 5 -3 9 1 9 9 0 17 -3 19 -12 6z"/>
<path d="M1747 1979 c7 -9 10 -19 6 -22 -3 -4 -1 -7 5 -7 17 0 15 16 -5 31
-16 12 -17 12 -6 -2z"/>
<path d="M3277 1972 c-15 -16 -15 -19 -2 -19 8 0 13 3 10 5 -3 3 0 11 6 19 17
20 5 16 -14 -5z"/>
<path d="M4330 1979 c0 -5 5 -7 10 -4 6 3 10 8 10 11 0 2 -4 4 -10 4 -5 0 -10
-5 -10 -11z"/>
<path d="M2256 1967 c3 -8 11 -14 19 -14 20 0 19 4 -5 17 -15 8 -18 8 -14 -3z"/>
<path d="M4249 1963 c-13 -16 -12 -17 4 -4 16 13 21 21 13 21 -2 0 -10 -8 -17
-17z"/>
<path d="M196 1962 c-3 -5 1 -9 9 -9 8 0 12 4 9 9 -3 4 -7 8 -9 8 -2 0 -6 -4
-9 -8z"/>
<path d="M3301 1954 c0 -11 3 -14 6 -6 3 7 2 16 -1 19 -3 4 -6 -2 -5 -13z"/>
<path d="M670 1956 c0 -2 8 -10 18 -17 15 -13 16 -12 3 4 -13 16 -21 21 -21
13z"/>
<path d="M1095 1940 c3 -5 8 -10 11 -10 2 0 4 5 4 10 0 6 -5 10 -11 10 -5 0
-7 -4 -4 -10z"/>
<path d="M1775 1940 c-3 -5 -1 -10 4 -10 6 0 11 5 11 10 0 6 -2 10 -4 10 -3 0
-8 -4 -11 -10z"/>
<path d="M4156 1942 c-3 -5 1 -9 9 -9 8 0 12 4 9 9 -3 4 -7 8 -9 8 -2 0 -6 -4
-9 -8z"/>
<path d="M1804 1922 c4 -3 14 -7 22 -8 9 -1 13 0 10 4 -4 3 -14 7 -22 8 -9 1
-13 0 -10 -4z"/>
<path d="M3300 1920 c0 -5 5 -10 11 -10 5 0 7 5 4 10 -3 6 -8 10 -11 10 -2 0
-4 -4 -4 -10z"/>
<path d="M4086 1918 c3 -5 10 -6 15 -3 13 9 11 12 -6 12 -8 0 -12 -4 -9 -9z"/>
<path d="M3864 1905 c-10 -8 -14 -15 -9 -15 6 -1 1 -6 -10 -11 -17 -7 -17 -8
-2 -6 10 1 18 6 17 10 -1 5 7 15 17 23 10 7 15 14 12 14 -3 0 -14 -7 -25 -15z"/>
<path d="M3950 1910 c-9 -6 -10 -10 -3 -10 6 0 15 5 18 10 8 12 4 12 -15 0z"/>
<path d="M3980 1906 c0 -2 8 -10 18 -17 15 -13 16 -12 3 4 -13 16 -21 21 -21
13z"/>
<path d="M4130 1900 c0 -5 5 -10 11 -10 5 0 7 5 4 10 -3 6 -8 10 -11 10 -2 0
-4 -4 -4 -10z"/>
<path d="M1810 1896 c0 -2 8 -10 18 -17 15 -13 16 -12 3 4 -13 16 -21 21 -21
13z"/>
<path d="M3815 1890 c-3 -6 1 -7 9 -4 18 7 21 14 7 14 -6 0 -13 -4 -16 -10z"/>
<path d="M710 1879 c0 -5 5 -7 10 -4 6 3 10 8 10 11 0 2 -4 4 -10 4 -5 0 -10
-5 -10 -11z"/>
<path d="M1855 1880 c-3 -5 -1 -10 4 -10 6 0 11 5 11 10 0 6 -2 10 -4 10 -3 0
-8 -4 -11 -10z"/>
<path d="M736 1858 c3 -5 10 -6 15 -3 13 9 11 12 -6 12 -8 0 -12 -4 -9 -9z"/>
<path d="M1190 1866 c0 -2 7 -7 16 -10 8 -3 12 -2 9 4 -6 10 -25 14 -25 6z"/>
<path d="M3318 1863 c7 -3 16 -2 19 1 4 3 -2 6 -13 5 -11 0 -14 -3 -6 -6z"/>
<path d="M3854 1849 c-3 -6 -2 -15 3 -20 5 -5 9 -1 9 11 0 23 -2 24 -12 9z"/>
<path d="M2976 1842 c-3 -5 1 -9 9 -9 8 0 12 4 9 9 -3 4 -7 8 -9 8 -2 0 -6 -4
-9 -8z"/>
<path d="M3306 1838 c3 -5 10 -6 15 -3 13 9 11 12 -6 12 -8 0 -12 -4 -9 -9z"/>
<path d="M1893 1825 c0 -8 4 -12 9 -9 5 3 6 10 3 15 -9 13 -12 11 -12 -6z"/>
<path d="M1273 1807 c0 -8 6 -14 14 -14 9 0 10 4 2 14 -6 7 -12 13 -14 13 -1
0 -2 -6 -2 -13z"/>
<path d="M2416 1807 c3 -8 11 -14 19 -14 20 0 19 4 -5 17 -15 8 -18 8 -14 -3z"/>
<path d="M3816 1807 c3 -10 9 -15 12 -12 3 3 0 11 -7 18 -10 9 -11 8 -5 -6z"/>
<path d="M1952 1753 c24 -25 38 -32 18 -8 -6 8 -9 18 -7 22 3 5 -3 9 -13 9
-18 0 -18 -2 2 -23z"/>
<path d="M2375 1760 c-3 -5 -1 -10 4 -10 6 0 11 5 11 10 0 6 -2 10 -4 10 -3 0
-8 -4 -11 -10z"/>
<path d="M3306 1762 c-3 -5 1 -9 9 -9 8 0 15 4 15 9 0 4 -4 8 -9 8 -6 0 -12
-4 -15 -8z"/>
<path d="M1315 1750 c-3 -6 1 -7 9 -4 18 7 21 14 7 14 -6 0 -13 -4 -16 -10z"/>
<path d="M2494 1720 c0 -13 4 -16 12 -10 6 6 14 7 17 3 4 -3 7 -3 7 0 0 3 -8
11 -18 16 -14 7 -18 6 -18 -9z"/>
<path d="M2020 1715 c-7 -9 -11 -17 -9 -20 3 -2 10 5 17 15 14 24 10 26 -8 5z"/>
<path d="M3307 1719 c7 -9 10 -19 6 -22 -3 -4 -1 -7 5 -7 17 0 15 16 -5 31
-16 12 -17 12 -6 -2z"/>
<path d="M850 1711 c0 -6 4 -13 10 -16 6 -3 7 1 4 9 -7 18 -14 21 -14 7z"/>
<path d="M270 1700 c0 -5 5 -10 11 -10 5 0 7 5 4 10 -3 6 -8 10 -11 10 -2 0
-4 -4 -4 -10z"/>
<path d="M3275 1700 c3 -5 8 -10 11 -10 2 0 4 5 4 10 0 6 -5 10 -11 10 -5 0
-7 -4 -4 -10z"/>
<path d="M1376 1687 c3 -10 9 -15 12 -12 3 3 0 11 -7 18 -10 9 -11 8 -5 -6z"/>
<path d="M2535 1689 c-4 -6 -5 -12 -2 -15 2 -3 7 2 10 11 7 17 1 20 -8 4z"/>
<path d="M891 1668 c12 -23 20 -24 12 0 -6 15 -3 15 18 -3 l24 -20 -18 21
c-22 27 -50 29 -36 2z"/>
<path d="M2067 1659 c7 -9 10 -19 6 -22 -3 -4 -1 -7 5 -7 17 0 15 16 -5 31
-16 12 -17 12 -6 -2z"/>
<path d="M3275 1640 c-3 -5 -1 -10 4 -10 6 0 11 5 11 10 0 6 -2 10 -4 10 -3 0
-8 -4 -11 -10z"/>
<path d="M2095 1620 c-3 -5 -1 -10 4 -10 6 0 11 5 11 10 0 6 -2 10 -4 10 -3 0
-8 -4 -11 -10z"/>
<path d="M2576 1622 c-3 -5 1 -9 9 -9 8 0 12 4 9 9 -3 4 -7 8 -9 8 -2 0 -6 -4
-9 -8z"/>
<path d="M3275 1609 c-4 -6 -5 -12 -2 -15 2 -3 7 2 10 11 7 17 1 20 -8 4z"/>
<path d="M3773 1605 c0 -8 4 -12 9 -9 5 3 6 10 3 15 -9 13 -12 11 -12 -6z"/>
<path d="M990 1601 c0 -6 4 -13 10 -16 6 -3 7 1 4 9 -7 18 -14 21 -14 7z"/>
<path d="M2113 1596 c-3 -6 -3 -8 2 -4 4 4 13 3 20 -2 8 -7 12 -5 12 3 0 16
-25 18 -34 3z"/>
<path d="M1513 1567 c0 -8 6 -14 14 -14 9 0 10 4 2 14 -6 7 -12 13 -14 13 -1
0 -2 -6 -2 -13z"/>
<path d="M2916 1567 c3 -10 9 -15 12 -12 3 3 0 11 -7 18 -10 9 -11 8 -5 -6z"/>
<path d="M373 1545 c0 -8 4 -12 9 -9 5 3 6 10 3 15 -9 13 -12 11 -12 -6z"/>
<path d="M2186 1545 c-11 -8 -15 -15 -9 -15 6 0 16 7 23 15 16 19 11 19 -14 0z"/>
<path d="M1082 1524 c10 -10 20 -16 22 -13 3 3 -5 11 -17 18 -21 13 -21 12 -5
-5z"/>
<path d="M1535 1529 c-4 -6 -5 -12 -2 -15 2 -3 7 2 10 11 7 17 1 20 -8 4z"/>
<path d="M3760 1520 c-9 -6 -10 -10 -3 -10 6 0 15 5 18 10 8 12 4 12 -15 0z"/>
<path d="M1570 1499 c0 -5 5 -7 10 -4 6 3 10 8 10 11 0 2 -4 4 -10 4 -5 0 -10
-5 -10 -11z"/>
<path d="M3214 1498 c-3 -5 0 -7 7 -6 7 2 13 -2 14 -9 0 -6 4 -15 8 -20 5 -4
8 -3 7 2 -5 23 1 36 13 29 6 -4 9 -3 4 1 -10 12 -47 14 -53 3z"/>
<path d="M2219 1488 c15 -21 31 -23 31 -6 0 6 -3 8 -7 5 -3 -4 -13 -1 -22 6
-14 11 -14 10 -2 -5z"/>
<path d="M414 1478 c-4 -7 -4 -10 1 -6 4 4 15 2 24 -5 14 -11 14 -10 2 6 -16
20 -18 21 -27 5z"/>
<path d="M1590 1479 c0 -5 5 -7 10 -4 6 3 10 8 10 11 0 2 -4 4 -10 4 -5 0 -10
-5 -10 -11z"/>
<path d="M2266 1482 c-3 -5 1 -9 9 -9 8 0 12 4 9 9 -3 4 -7 8 -9 8 -2 0 -6 -4
-9 -8z"/>
<path d="M1170 1436 c7 -7 13 -7 20 0 6 6 3 10 -10 10 -13 0 -16 -4 -10 -10z"/>
<path d="M2310 1444 c0 -20 27 -37 36 -23 4 7 3 9 -4 5 -6 -3 -15 2 -21 11 -6
10 -11 13 -11 7z"/>
<path d="M3186 1438 c3 -5 10 -6 15 -3 13 9 11 12 -6 12 -8 0 -12 -4 -9 -9z"/>
<path d="M3730 1419 c0 -5 5 -7 10 -4 6 3 10 8 10 11 0 2 -4 4 -10 4 -5 0 -10
-5 -10 -11z"/>
<path d="M1673 1407 c0 -8 6 -14 14 -14 9 0 10 4 2 14 -6 7 -12 13 -14 13 -1
0 -2 -6 -2 -13z"/>
<path d="M2290 1416 c0 -2 8 -10 18 -17 15 -13 16 -12 3 4 -13 16 -21 21 -21
13z"/>
<path d="M469 1383 c-13 -16 -12 -17 4 -4 16 13 21 21 13 21 -2 0 -10 -8 -17
-17z"/>
<path d="M1185 1378 c9 -22 36 -31 49 -17 8 9 8 10 -2 4 -8 -4 -22 1 -33 11
-17 15 -19 15 -14 2z"/>
<path d="M3700 1385 c0 -2 6 -8 13 -14 10 -8 14 -7 14 2 0 8 -6 14 -14 14 -7
0 -13 -1 -13 -2z"/>
<path d="M1695 1369 c-4 -6 -5 -12 -2 -15 2 -3 7 2 10 11 7 17 1 20 -8 4z"/>
<path d="M593 1345 c0 -8 4 -15 9 -15 4 0 8 4 8 9 0 6 -4 12 -8 15 -5 3 -9 -1
-9 -9z"/>
<path d="M2397 1353 c-10 -9 -9 -23 1 -23 5 0 9 7 9 15 0 17 -1 18 -10 8z"/>
<path d="M1753 1327 c0 -8 6 -14 14 -14 9 0 10 4 2 14 -6 7 -12 13 -14 13 -1
0 -2 -6 -2 -13z"/>
<path d="M3055 1329 c-4 -6 -5 -12 -2 -15 2 -3 7 2 10 11 7 17 1 20 -8 4z"/>
<path d="M2933 1305 c0 -8 4 -12 9 -9 5 3 6 10 3 15 -9 13 -12 11 -12 -6z"/>
<path d="M3673 1305 c0 -8 4 -12 9 -9 5 3 6 10 3 15 -9 13 -12 11 -12 -6z"/>
<path d="M1322 1284 c10 -10 20 -16 22 -13 3 3 -5 11 -17 18 -21 13 -21 12 -5
-5z"/>
<path d="M3035 1290 c-4 -6 -11 -8 -16 -5 -5 4 -9 1 -9 -4 0 -15 11 -13 34 4
11 8 15 15 9 15 -7 0 -15 -5 -18 -10z"/>
<path d="M2559 1273 c-13 -16 -12 -17 4 -4 9 7 17 15 17 17 0 8 -8 3 -21 -13z"/>
<path d="M587 1259 c7 -7 15 -10 18 -7 3 3 -2 9 -12 12 -14 6 -15 5 -6 -5z"/>
<path d="M2610 1260 c0 -5 5 -10 11 -10 5 0 7 5 4 10 -3 6 -8 10 -11 10 -2 0
-4 -4 -4 -10z"/>
<path d="M2817 1263 c-9 -8 12 -33 27 -33 6 0 3 5 -7 11 -9 6 -15 14 -12 20 7
10 2 12 -8 2z"/>
<path d="M2965 1259 c-4 -6 -5 -12 -2 -15 2 -3 7 2 10 11 7 17 1 20 -8 4z"/>
<path d="M650 1240 c0 -5 5 -10 11 -10 5 0 7 5 4 10 -3 6 -8 10 -11 10 -2 0
-4 -4 -4 -10z"/>
<path d="M1810 1239 c0 -5 5 -7 10 -4 6 3 10 8 10 11 0 2 -4 4 -10 4 -5 0 -10
-5 -10 -11z"/>
<path d="M2699 1233 c-13 -16 -12 -17 4 -4 14 11 20 11 35 0 15 -13 16 -12 3
4 -7 9 -17 17 -21 17 -4 0 -14 -8 -21 -17z"/>
<path d="M2635 1231 c-3 -5 -2 -12 3 -15 5 -3 9 1 9 9 0 17 -3 19 -12 6z"/>
<path d="M2880 1236 c0 -2 7 -7 16 -10 8 -3 12 -2 9 4 -6 10 -25 14 -25 6z"/>
<path d="M1346 1215 c4 -8 11 -15 16 -15 6 0 5 6 -2 15 -7 8 -14 15 -16 15 -2
0 -1 -7 2 -15z"/>
<path d="M1830 1226 c0 -2 7 -7 16 -10 8 -3 12 -2 9 4 -6 10 -25 14 -25 6z"/>
<path d="M743 1199 c9 -6 15 -14 12 -20 -4 -5 -1 -9 4 -9 6 0 11 4 11 8 0 12
-22 32 -34 32 -6 0 -3 -5 7 -11z"/>
<path d="M1390 1201 c0 -6 4 -13 10 -16 6 -3 7 1 4 9 -7 18 -14 21 -14 7z"/>
<path d="M1907 1166 c-4 -10 -1 -13 8 -9 8 3 12 9 9 14 -7 12 -11 11 -17 -5z"/>
<path d="M1415 1160 c3 -5 8 -10 11 -10 2 0 4 5 4 10 0 6 -5 10 -11 10 -5 0
-7 -4 -4 -10z"/>
<path d="M1916 1142 c-3 -5 1 -9 9 -9 8 0 12 4 9 9 -3 4 -7 8 -9 8 -2 0 -6 -4
-9 -8z"/>
<path d="M3548 1143 c7 -3 16 -2 19 1 4 3 -2 6 -13 5 -11 0 -14 -3 -6 -6z"/>
<path d="M1506 1122 c-3 -5 1 -9 9 -9 8 0 12 4 9 9 -3 4 -7 8 -9 8 -2 0 -6 -4
-9 -8z"/>
<path d="M747 1099 c7 -7 15 -10 18 -7 3 3 -2 9 -12 12 -14 6 -15 5 -6 -5z"/>
<path d="M1986 1083 c-6 -14 -5 -15 5 -6 7 7 10 15 7 18 -3 3 -9 -2 -12 -12z"/>
<path d="M2013 1055 c0 -8 4 -12 9 -9 5 3 6 10 3 15 -9 13 -12 11 -12 -6z"/>
<path d="M3486 1058 c3 -5 10 -6 15 -3 13 9 11 12 -6 12 -8 0 -12 -4 -9 -9z"/>
<path d="M1562 1044 c10 -10 20 -16 22 -13 3 3 -5 11 -17 18 -21 13 -21 12 -5
-5z"/>
<path d="M1990 1041 c0 -6 4 -13 10 -16 6 -3 7 1 4 9 -7 18 -14 21 -14 7z"/>
<path d="M887 1019 c7 -7 15 -10 18 -7 3 3 -2 9 -12 12 -14 6 -15 5 -6 -5z"/>
<path d="M3455 1000 c3 -5 8 -10 11 -10 2 0 4 5 4 10 0 6 -5 10 -11 10 -5 0
-7 -4 -4 -10z"/>
<path d="M1586 977 c3 -10 9 -15 12 -12 3 3 0 11 -7 18 -10 9 -11 8 -5 -6z"/>
<path d="M3390 978 c0 -4 4 -8 9 -8 6 0 12 4 15 8 3 5 -1 9 -9 9 -8 0 -15 -4
-15 -9z"/>
<path d="M983 959 c9 -6 15 -14 12 -20 -4 -5 -1 -9 4 -9 6 0 11 4 11 8 0 12
-22 32 -34 32 -6 0 -3 -5 7 -11z"/>
<path d="M2169 923 c-13 -16 -12 -17 4 -4 16 13 21 21 13 21 -2 0 -10 -8 -17
-17z"/>
<path d="M3355 930 c-4 -6 -11 -7 -17 -4 -7 4 -8 2 -4 -5 6 -9 11 -9 22 0 14
11 18 19 10 19 -3 0 -8 -5 -11 -10z"/>
<path d="M1650 911 c0 -6 4 -13 10 -16 6 -3 7 1 4 9 -7 18 -14 21 -14 7z"/>
<path d="M2195 911 c-3 -5 -2 -12 3 -15 5 -3 9 1 9 9 0 17 -3 19 -12 6z"/>
<path d="M3313 905 c0 -8 4 -12 9 -9 5 3 6 10 3 15 -9 13 -12 11 -12 -6z"/>
<path d="M3255 871 c-3 -5 -2 -12 3 -15 5 -3 9 1 9 9 0 17 -3 19 -12 6z"/>
<path d="M2256 862 c-3 -5 1 -9 9 -9 8 0 12 4 9 9 -3 4 -7 8 -9 8 -2 0 -6 -4
-9 -8z"/>
<path d="M3190 861 c0 -6 4 -12 8 -15 5 -3 9 1 9 9 0 8 -4 15 -9 15 -4 0 -8
-4 -8 -9z"/>
<path d="M1059 858 c-5 -18 -6 -38 -1 -34 7 8 12 36 6 36 -2 0 -4 -1 -5 -2z"/>
<path d="M2360 846 c0 -2 8 -10 18 -17 15 -13 16 -12 3 4 -13 16 -21 21 -21
13z"/>
<path d="M3169 837 c6 -8 7 -18 3 -22 -4 -5 -1 -5 6 -1 10 6 10 11 1 22 -6 8
-14 14 -16 14 -3 0 0 -6 6 -13z"/>
<path d="M1110 830 c0 -6 -6 -8 -12 -4 -7 4 -9 3 -5 -1 10 -12 37 -15 37 -5 0
5 -4 12 -10 15 -5 3 -10 1 -10 -5z"/>
<path d="M1747 815 c3 -8 9 -12 14 -9 12 7 11 11 -5 17 -10 4 -13 1 -9 -8z"/>
<path d="M2310 819 c0 -5 5 -7 10 -4 6 3 10 8 10 11 0 2 -4 4 -10 4 -5 0 -10
-5 -10 -11z"/>
<path d="M2435 811 c-3 -5 -2 -12 3 -15 5 -3 9 1 9 9 0 17 -3 19 -12 6z"/>
<path d="M2433 765 c0 -8 4 -12 9 -9 5 3 6 10 3 15 -9 13 -12 11 -12 -6z"/>
<path d="M1153 753 c0 -9 4 -10 14 -2 7 6 13 12 13 14 0 1 -6 2 -13 2 -8 0
-14 -6 -14 -14z"/>
<path d="M2599 753 c-13 -16 -12 -17 4 -4 16 13 21 21 13 21 -2 0 -10 -8 -17
-17z"/>
<path d="M2650 759 c0 -5 5 -7 10 -4 6 3 10 8 10 11 0 2 -4 4 -10 4 -5 0 -10
-5 -10 -11z"/>
<path d="M2755 761 c-3 -5 -2 -12 3 -15 5 -3 9 1 9 9 0 17 -3 19 -12 6z"/>
<path d="M2550 756 c0 -2 8 -10 18 -17 15 -13 16 -12 3 4 -13 16 -21 21 -21
13z"/>
<path d="M2850 739 c0 -5 5 -7 10 -4 6 3 10 8 10 11 0 2 -4 4 -10 4 -5 0 -10
-5 -10 -11z"/>
<path d="M1223 719 c9 -6 15 -14 12 -20 -4 -5 -1 -9 4 -9 6 0 11 4 11 8 0 12
-22 32 -34 32 -6 0 -3 -5 7 -11z"/>
<path d="M1307 619 c7 -7 15 -10 18 -7 3 3 -2 9 -12 12 -14 6 -15 5 -6 -5z"/>
<path d="M1327 559 c7 -7 15 -10 18 -7 3 3 -2 9 -12 12 -14 6 -15 5 -6 -5z"/>
<path d="M1366 562 c-3 -5 1 -9 9 -9 8 0 15 4 15 9 0 4 -4 8 -9 8 -6 0 -12 -4
-15 -8z"/>
<path d="M1533 425 c0 -8 4 -12 9 -9 5 3 6 10 3 15 -9 13 -12 11 -12 -6z"/>
</g>
</svg>
