<svg xmlns="http://www.w3.org/2000/svg" viewBox="0 0 512 512"><path fill-rule="evenodd" clip-rule="evenodd" fill="#E94E25" d="M281.58,0c11.566,2.436,23.218,4.6,34.683,7.39 c62.239,15.078,111.406,49.413,149.104,100.834c4.322,5.875,4.011,8.183-2.805,11.413c-59.118,27.889-118.05,56.107-176.985,84.354 c-3.795,1.826-6.615,1.854-10.402-0.325c-11.82-6.784-23.785-13.438-36.073-19.283c-5.199-2.464-3.924-4.249-1.63-7.575 c4.424-6.443,9.339-12.688,11.722-22.118c-10.969,3.656-16.157,12.333-23.214,18.521c-4.225,3.651-6.235,10.915-14.273,8.45 c-1.644-0.493-2.822,1.262-2.409,3.145c2.934,13.578-10.901,18.546-14.911,28.627c-0.963,2.449-4.548-0.396-6.774-1.329 c-9.37-3.866-18.751-7.677-28.009-11.809c-16.13-7.208-33.448-2.167-50.061-5.084c-6.86-1.217-9.085,4.433-6.489,10.987 c4.253,10.718,12.032,18.718,20.579,25.882c8.547,7.106,17.533,13.719,26.673,20.031c4.339,3.018,4.95,5.425,0.768,8.497 c-4.851,3.554-6.151,11.624-14.204,11.143c-0.554-0.027-1.673,0.523-1.644,0.664c2.226,13.352-12.942,19.455-13.25,32.766 c6.376-2.649,10.074-7.719,14.187-12.11c2.406-2.588,4.281-3.733,6.518-0.056c0.158,0.27,0.396,0.484,0.626,0.71 c12.754,13.038,12.725,13.026,5.229,29.646c-1.575,3.452-3.135,6.936-4.454,10.505c-1.757,4.759-4.094,9.843,0.414,14.231 c4.447,4.274,10.048,5.494,15.9,3.352c10.718-3.921,21.359-8.012,31.964-12.213c19.162-7.606,38.307-15.193,57.344-23.107 c4.365-1.827,8.321-2.069,12.74-0.737c38.019,11.254,75.97,22.694,114.141,33.399c6.761,1.909,7.725,4.599,6.21,10.404 c-0.952,3.74-4.384,8.37,0.208,11.242c5.315,3.34,11.258,5.494,17.975,2.467c9.655-4.349,17.362-12.719,29.21-12.859 c3.601-0.055,3.358-7.006,7.811-9.372c7.54-3.994,14.198-9.629,21.389-14.297c5.785-3.768,4.849-7.606,0.452-11.456 c-5.185-4.531-11.41-5.44-17.944-3.897c-3.994,0.951-7.95,2.237-11.82,3.656c-4.294,1.569-7.38,1.896-8.203-4.033 c-1.291-8.979-8.32-13.059-15.592-16.597c-5.715-2.829-9.554,0.607-13.381,4.263c-13.746,13.155-13.777,13.093-29.338,2.946 c-15.974-10.42-31.949-20.816-48.957-31.898c57.897-44.047,115.229-87.685,173.17-131.743c9.357,17.767,15.327,36.727,19.134,56.222 c26.464,135.04-52.456,262.537-184.861,299.177C183.218,541.409,36.736,452.751,6.079,311.764 C-24.861,169.472,65.309,32.337,208.232,4.261c6.62-1.304,13.665-0.737,19.817-4.261C245.894,0,263.736,0,281.58,0z"/></svg>