<svg xmlns="http://www.w3.org/2000/svg" viewBox="0 0 512 512"><g><path fill="none" stroke="#2AC43B" stroke-width="40.9524" stroke-linecap="round" stroke-miterlimit="10" d="M276.358,333.414 l-96.915-96.91c-31.673-31.668-83.02-31.668-114.689,0c-31.671,31.67-31.671,83.021,0,114.689l96.914,96.914"/><path fill="none" stroke="#2AC43B" stroke-width="40.9524" stroke-linecap="round" stroke-miterlimit="10" d="M391.047,218.725 l-96.914-96.915c-31.669-31.671-83.02-31.671-114.689,0c-31.673,31.676-31.673,83.026,0,114.694l96.915,96.91"/><path fill="none" stroke="#2AC43B" stroke-width="40.9524" stroke-linecap="round" stroke-miterlimit="10" d="M236.217,178.582 l96.337,96.342c31.67,31.674,83.023,31.674,114.693,0c31.671-31.672,31.671-83.018,0-114.691l-96.344-96.339"/><path fill="none" stroke="#2AC43B" stroke-width="40.9524" stroke-linecap="round" stroke-miterlimit="10" d="M121.525,293.273 l96.34,96.342c31.67,31.672,83.021,31.672,114.688,0c31.67-31.674,31.67-83.018,0-114.691l-96.337-96.342"/></g></svg>